<svg id="eK8TWdyNaRC1" xmlns="http://www.w3.org/2000/svg" xmlns:xlink="http://www.w3.org/1999/xlink" viewBox="-0.5 -0.5 661 700" shape-rendering="geometricPrecision" text-rendering="geometricPrecision" project-id="5f4dc230b38040908f2a722d3a430b10" export-id="e165e3ea153a4671b6a95be856b8ffbd" cached="false" style="background-color:#fff"><rect width="661" height="700" rx="0" ry="0" fill="#fff"/><g transform="matrix(1.298562 0 0 1.298562 -649.560728 -151.25337)"><g clip-path="url(#eK8TWdyNaRC7)"><g transform="translate(1.660896 0)"><path d="M0,0h1600v900L0,900L0,0Z" transform="matrix(0.75 0 0 0.75 -0.340091 -0.185883)" fill="#fff"/></g><clipPath id="eK8TWdyNaRC7"><path d="M0,0h5001v2814h-5001L0,0Z" transform="matrix(0.24 0 0 0.24 0 0)" clip-rule="evenodd"/></clipPath></g><g transform="translate(0 -1.967606)" clip-path="url(#eK8TWdyNaRC89)"><g><path d="M820.33,3773h375.84c.4649,0,.9252.0455,1.3812.136.4559.0906.8985.2249,1.3281.4026.4294.178.8374.396,1.224.6543.3866.2581.7441.5518,1.0729.8807.3286.3288.622.6862.8805,1.0727.2581.3865.4763.7947.6542,1.2241.1779.4295.3123.8721.403,1.3282.0907.456.1361.9164.1361,1.3814v103.84c0,.4648-.0454.9253-.1361,1.381-.0907.4559-.2251.8985-.403,1.328s-.3961.8374-.6542,1.2239c-.2585.3864-.5519.7443-.8805,1.0731-.3288.3287-.6863.622-1.0729.8805-.3866.2583-.7946.4763-1.224.6543-.4296.1779-.8722.3125-1.3281.403-.456.0906-.9163.136-1.3812.1362h-375.84c-.4649-.0002-.92531-.0456-1.38131-.1362s-.89869-.2251-1.32812-.403-.83757-.396-1.22407-.6546c-.38653-.2582-.74413-.5515-1.07281-.8802s-.62229-.6867-.88059-1.0731-.47634-.7945-.6543-1.2239-.3122-.8721-.4029-1.328c-.0906-.4557-.13594-.9162-.1359-1.381v-103.84c-.00004-.465.0453-.9254.1359-1.3814.0907-.4561.225-.899.4029-1.3286.17796-.4293.396-.8372.6544-1.2237.2582-.3865.55176-.7439.88049-1.0727.32868-.3289.68628-.6226,1.07281-.8809.3865-.2581.79457-.4761,1.22407-.6541.42943-.1777.87213-.312,1.32812-.4026.456-.0905.91641-.136,1.38131-.136Z" transform="matrix(0.724948 0 0 0.724948 20.6151 -2598.2)" fill="#fff"/><path d="M820.33,3773h375.84c.4649,0,.9252.0455,1.3812.136.4559.0906.8985.2249,1.3281.4026.4294.178.8374.396,1.224.6543.3866.2581.7441.5518,1.0729.8807.3286.3288.622.6862.8805,1.0727.2581.3865.4763.7947.6542,1.2241.1779.4295.3123.8721.403,1.3282.0907.456.1361.9164.1361,1.3814v103.84c0,.4648-.0454.9253-.1361,1.381-.0907.4559-.2251.8985-.403,1.328s-.3961.8374-.6542,1.2239c-.2585.3864-.5519.7443-.8805,1.0731-.3288.3287-.6863.622-1.0729.8805-.3866.2583-.7946.4763-1.224.6543-.4296.1779-.8722.3125-1.3281.403-.456.0906-.9163.136-1.3812.1362h-375.84c-.4649-.0002-.92531-.0456-1.38131-.1362s-.89869-.2251-1.32812-.403-.83757-.396-1.22407-.6546c-.38653-.2582-.74413-.5515-1.07281-.8802s-.62229-.6867-.88059-1.0731-.47634-.7945-.6543-1.2239-.3122-.8721-.4029-1.328c-.0906-.4557-.13594-.9162-.1359-1.381v-103.84c-.00004-.465.0453-.9254.1359-1.3814.0907-.4561.225-.899.4029-1.3286.17796-.4293.396-.8372.6544-1.2237.2582-.3865.55176-.7439.88049-1.0727.32868-.3289.68628-.6226,1.07281-.8809.3865-.2581.79457-.4761,1.22407-.6541.42943-.1777.87213-.312,1.32812-.4026.456-.0905.91641-.136,1.38131-.136Z" transform="matrix(0.724948 0 0 0.724948 20.6151 -2598.2)" fill="none" stroke="#7599cd"/><text dx="0" dy="0" font-family="&quot;Times&quot;" font-size="10.63" font-weight="400" transform="matrix(0.75 0 0 0.75 20.2526 -2598.56)"><tspan x="794.625" y="3663.3907" font-family="&quot;Times&quot;" font-size="10.63" font-weight="400" font-style="normal"><![CDATA[
thing
]]></tspan></text><text dx="0" dy="0" font-family="&quot;Times&quot;" font-size="10.63" font-weight="400" transform="matrix(0.75 0 0 0.75 20.2526 -2598.56)"><tspan x="817.67568" y="3663.3907" font-family="&quot;Times&quot;" font-size="10.63" font-weight="400" font-style="normal"><![CDATA[
ﬂ
]]></tspan></text><text dx="0" dy="0" font-family="&quot;Times&quot;" font-size="10.63" font-weight="400" transform="matrix(0.75 0 0 0.75 20.2526 -2598.56)"><tspan x="822.99069" y="3663.3907" font-family="&quot;Times&quot;" font-size="10.63" font-weight="400" font-style="normal"><![CDATA[
ash: CLI
]]></tspan></text><path d="M834.81,3802h95.38c.63778,0,1.2513.1219,1.8406.3656.5893.2443,1.1095.5922,1.5605,1.0432.451.4506.79857.9707,1.0426,1.5602.2441.589.36626,1.2029.3663,1.841v27.38c-.00004.6377-.1222,1.2512-.3663,1.8403-.2441.5892-.59162,1.1092-1.04261,1.5606-.45111.4509-.97129.7983-1.56049,1.0425-.5893.2441-1.20282.3664-1.8406.3666h-95.38c-.6379-.0002-1.2515-.1225-1.8408-.3666-.5893-.2442-1.10943-.5916-1.56042-1.0425-.45108-.4514-.79859-.9714-1.04268-1.5606-.2441-.5891-.36614-1.2026-.3661-1.8403v-27.38c-.00004-.6381.122-1.252.3661-1.841.24409-.5895.5916-1.1096,1.04268-1.5602.45099-.451.97119-.7988,1.56048-1.043.5893-.2439,1.20284-.3658,1.84074-.3658Z" transform="matrix(0.724948 0 0 0.724948 20.6151 -2598.2)" fill="#3862af"/><text dx="0" dy="0" font-family="&quot;Times&quot;" font-size="11.59" font-weight="400" transform="matrix(0.75 0 0 0.75 20.2526 -2598.56)" fill="#f5f5f5"><tspan x="845.59378" y="3697.7032" font-family="&quot;Times&quot;" font-size="11.59" font-weight="400" font-style="normal" fill="#f5f5f5"><![CDATA[
init
]]></tspan></text><path d="M960.81,3802h95.38c.6378,0,1.2513.1219,1.8405.3656.5893.2443,1.1095.5922,1.5606,1.0432.4509.4506.7984.9707,1.0426,1.5602.2441.589.3662,1.2029.3663,1.841v27.38c-.0001.6377-.1222,1.2512-.3663,1.8403-.2442.5892-.5917,1.1092-1.0426,1.5606-.4511.4509-.9713.7983-1.5606,1.0425-.5892.2441-1.2027.3664-1.8405.3666h-95.38c-.6379-.0002-1.2515-.1225-1.8408-.3666-.5893-.2442-1.10943-.5916-1.56042-1.0425-.45099-.4514-.79859-.9714-1.04278-1.5606-.24403-.5891-.36604-1.2026-.366-1.8403v-27.38c-.00004-.6381.122-1.252.3661-1.841.24409-.5895.59169-1.1096,1.0427-1.5602.45097-.451.9711-.7988,1.56046-1.043.5893-.2439,1.20284-.3658,1.84074-.3658Z" transform="matrix(0.724948 0 0 0.724948 20.6151 -2598.2)" fill="#3862af"/><text dx="0" dy="0" font-family="&quot;Times&quot;" font-size="11.59" font-weight="400" transform="matrix(0.75 0 0 0.75 20.2526 -2598.56)" fill="#f5f5f5"><tspan x="955.7969" y="3697.7032" font-family="&quot;Times&quot;" font-size="11.59" font-weight="400" font-style="normal" fill="#f5f5f5"><![CDATA[
con
]]></tspan></text><text dx="0" dy="0" font-family="&quot;Times&quot;" font-size="11.59" font-weight="400" transform="matrix(0.75 0 0 0.75 20.2526 -2598.56)" fill="#f5f5f5"><tspan x="974.48348" y="3697.7032" font-family="&quot;Times&quot;" font-size="11.59" font-weight="400" font-style="normal" fill="#f5f5f5"><![CDATA[
ﬁ
]]></tspan></text><text dx="0" dy="0" font-family="&quot;Times&quot;" font-size="11.59" font-weight="400" transform="matrix(0.75 0 0 0.75 20.2526 -2598.56)" fill="#f5f5f5"><tspan x="980.27847" y="3697.7032" font-family="&quot;Times&quot;" font-size="11.59" font-weight="400" font-style="normal" fill="#f5f5f5"><![CDATA[
gure
]]></tspan></text><path d="M1086.81,3802h95.38c.6378,0,1.2512.1219,1.8404.3656.5894.2443,1.1096.5922,1.5607,1.0432.4509.4506.7984.9707,1.0426,1.5602.2441.589.3662,1.2029.3663,1.841v27.38c-.0001.6377-.1222,1.2512-.3663,1.8403-.2442.5892-.5917,1.1092-1.0426,1.5606-.4511.4509-.9713.7983-1.5607,1.0425-.5892.2441-1.2026.3664-1.8404.3666h-95.38c-.6379-.0002-1.2515-.1225-1.8408-.3666-.5892-.2442-1.1093-.5916-1.5604-1.0425-.451-.4514-.7987-.9714-1.0427-1.5606-.2441-.5891-.3662-1.2026-.3661-1.8403v-27.38c-.0001-.6381.122-1.252.3661-1.841.244-.5895.5917-1.1096,1.0427-1.5602.4511-.451.9712-.7988,1.5604-1.043.5893-.2439,1.2029-.3658,1.8408-.3658Z" transform="matrix(0.724948 0 0 0.724948 20.6151 -2598.2)" fill="#3862af"/><text dx="0" dy="0" font-family="&quot;Times&quot;" font-size="11.59" font-weight="400" transform="matrix(0.75 0 0 0.75 20.2526 -2598.56)" fill="#f5f5f5"><tspan x="1090.4688" y="3697.7032" font-family="&quot;Times&quot;" font-size="11.59" font-weight="400" font-style="normal" fill="#f5f5f5"><![CDATA[
plan
]]></tspan></text><path d="M834.81,3844h95.38c.63778,0,1.2513.1219,1.8406.3658.5893.2441,1.1095.5918,1.5605,1.0427s.79857.971,1.0426,1.5605c.2441.5894.36626,1.203.3663,1.841v27.38c-.00004.6375-.1222,1.251-.3663,1.84-.2441.5892-.59162,1.1095-1.04261,1.5606-.45111.451-.97129.7986-1.56049,1.0428-.5893.2441-1.20282.3664-1.8406.3666h-95.38c-.6379-.0002-1.2515-.1225-1.8408-.3666-.5893-.2442-1.10943-.5918-1.56042-1.0428s-.79859-.9714-1.04268-1.5606c-.2441-.589-.36614-1.2025-.3661-1.84v-27.38c-.00004-.638.122-1.2516.3661-1.841.24409-.5895.5916-1.1096,1.04268-1.5605s.97119-.7986,1.56048-1.0427c.5893-.2439,1.20284-.3658,1.84074-.3658Z" transform="matrix(0.724948 0 0 0.724948 20.6151 -2598.2)" fill="#3862af"/><text dx="0" dy="0" font-family="&quot;Times&quot;" font-size="11.59" font-weight="400" transform="matrix(0.75 0 0 0.75 20.2526 -2598.56)" fill="#f5f5f5"><tspan x="843.9844" y="3738.3126" font-family="&quot;Times&quot;" font-size="11.59" font-weight="400" font-style="normal" fill="#f5f5f5"><![CDATA[
apply
]]></tspan></text><path d="M960.81,3844h95.38c.6378,0,1.2513.1219,1.8405.3658.5893.2441,1.1095.5918,1.5606,1.0427.4509.4509.7984.971,1.0426,1.5605.2441.5894.3662,1.203.3663,1.841v27.38c-.0001.6375-.1222,1.251-.3663,1.84-.2442.5892-.5917,1.1095-1.0426,1.5606-.4511.451-.9713.7986-1.5606,1.0428-.5892.2441-1.2027.3664-1.8405.3666h-95.38c-.6379-.0002-1.2515-.1225-1.8408-.3666-.5893-.2442-1.10943-.5918-1.56042-1.0428s-.79859-.9714-1.04278-1.5606c-.24403-.589-.36604-1.2025-.366-1.84v-27.38c-.00004-.638.122-1.2516.3661-1.841.24409-.5895.59169-1.1096,1.0427-1.5605s.9711-.7986,1.56046-1.0427c.5893-.2439,1.20284-.3658,1.84074-.3658Z" transform="matrix(0.724948 0 0 0.724948 20.6151 -2598.2)" fill="#3862af"/><text dx="0" dy="0" font-family="&quot;Times&quot;" font-size="11.59" font-weight="400" transform="matrix(0.75 0 0 0.75 20.2526 -2598.56)" fill="#f5f5f5"><tspan x="964.1719" y="3738.3126" font-family="&quot;Times&quot;" font-size="11.59" font-weight="400" font-style="normal" fill="#f5f5f5"><![CDATA[
things
]]></tspan></text><path d="M1086.81,3844h95.38c.6378,0,1.2512.1219,1.8404.3658.5894.2441,1.1096.5918,1.5607,1.0427.4509.4509.7984.971,1.0426,1.5605.2441.5894.3662,1.203.3663,1.841v27.38c-.0001.6375-.1222,1.251-.3663,1.84-.2442.5892-.5917,1.1095-1.0426,1.5606-.4511.451-.9713.7986-1.5607,1.0428-.5892.2441-1.2026.3664-1.8404.3666h-95.38c-.6379-.0002-1.2515-.1225-1.8408-.3666-.5892-.2442-1.1093-.5918-1.5604-1.0428s-.7987-.9714-1.0427-1.5606c-.2441-.589-.3662-1.2025-.3661-1.84v-27.38c-.0001-.638.122-1.2516.3661-1.841.244-.5895.5917-1.1096,1.0427-1.5605s.9712-.7986,1.5604-1.0427c.5893-.2439,1.2029-.3658,1.8408-.3658Z" transform="matrix(0.724948 0 0 0.724948 20.6151 -2598.2)" fill="#3862af"/><text dx="0" dy="0" font-family="&quot;Times&quot;" font-size="11.59" font-weight="400" transform="matrix(0.75 0 0 0.75 20.2526 -2598.56)" fill="#f5f5f5"><tspan x="1090.7969" y="3738.3126" font-family="&quot;Times&quot;" font-size="11.59" font-weight="400" font-style="normal" fill="#f5f5f5"><![CDATA[
jobs
]]></tspan></text><path d="M820.74,4151h374.52c.5082,0,1.0115.0495,1.5099.1486s.9824.2454,1.4519.4404.9155.433,1.3381.715c.4225.2826.8135.603,1.1729.9628.3592.3592.6801.7502.9624,1.1728.2824.4224.5209.8684.7155,1.3379.1945.4693.3414.9535.4404,1.4525.0992.4987.1489,1.002.1489,1.51v70.52c0,.508-.0497,1.011-.1489,1.5097-.099.4983-.2459.9823-.4404,1.4522-.1946.4691-.4331.9151-.7155,1.3381-.2823.4226-.6032.8137-.9624,1.173-.3594.359-.7504.6798-1.173.9625-.4226.2822-.8686.5205-1.3381.7153-.4695.1949-.9534.3412-1.4518.4402s-1.0017.1487-1.5099.149h-374.52c-.50822-.0003-1.01152-.05-1.51-.149s-.9825-.246-1.45202-.441c-.46958-.194-.91559-.4323-1.3382-.7145-.42258-.2827-.81348-.6035-1.17279-.9625-.35939-.3593-.68023-.7504-.96269-1.173-.2823-.423-.52071-.869-.7152-1.3381-.1945-.4699-.3413-.9539-.4405-1.4522-.09901-.4987-.1486-1.0017-.1486-1.5097v-70.52c0-.508.04959-1.0113.1487-1.51.0991-.4984.2459-.983.4404-1.452.19449-.4692.4329-.9155.7153-1.3384.28236-.4226.6032-.8136.96259-1.1728.35931-.3598.75021-.6802,1.17279-.9628.42261-.282.86862-.5201,1.3382-.715s.95352-.3412,1.45192-.4404s1.00188-.1486,1.5101-.1486Z" transform="matrix(0.724948 0 0 0.724948 20.6151 -2598.2)" fill="#fff"/><path d="M820.74,4151h374.52c.5082,0,1.0115.0495,1.5099.1486s.9824.2454,1.4519.4404.9155.433,1.3381.715c.4225.2826.8135.603,1.1729.9628.3592.3592.6801.7502.9624,1.1728.2824.4224.5209.8684.7155,1.3379.1945.4693.3414.9535.4404,1.4525.0992.4987.1489,1.002.1489,1.51v70.52c0,.508-.0497,1.011-.1489,1.5097-.099.4983-.2459.9823-.4404,1.4522-.1946.4691-.4331.9151-.7155,1.3381-.2823.4226-.6032.8137-.9624,1.173-.3594.359-.7504.6798-1.173.9625-.4226.2822-.8686.5205-1.3381.7153-.4695.1949-.9534.3412-1.4518.4402s-1.0017.1487-1.5099.149h-374.52c-.50822-.0003-1.01152-.05-1.51-.149s-.9825-.246-1.45202-.441c-.46958-.194-.91559-.4323-1.3382-.7145-.42258-.2827-.81348-.6035-1.17279-.9625-.35939-.3593-.68023-.7504-.96269-1.173-.2823-.423-.52071-.869-.7152-1.3381-.1945-.4699-.3413-.9539-.4405-1.4522-.09901-.4987-.1486-1.0017-.1486-1.5097v-70.52c0-.508.04959-1.0113.1487-1.51.0991-.4984.2459-.983.4404-1.452.19449-.4692.4329-.9155.7153-1.3384.28236-.4226.6032-.8136.96259-1.1728.35931-.3598.75021-.6802,1.17279-.9628.42261-.282.86862-.5201,1.3382-.715s.95352-.3412,1.45192-.4404s1.00188-.1486,1.5101-.1486Z" transform="matrix(0.724948 0 0 0.724948 20.6151 -2598.2)" fill="none" stroke="#7599cd"/><text dx="0" dy="0" font-family="&quot;Times&quot;" font-size="11.59" font-weight="400" transform="matrix(0.75 0 0 0.75 20.2526 -2598.56)"><tspan x="795.78128" y="4030.2188" font-family="&quot;Times&quot;" font-size="11.59" font-weight="400" font-style="normal"><![CDATA[
thing
]]></tspan></text><text dx="0" dy="0" font-family="&quot;Times&quot;" font-size="11.59" font-weight="400" transform="matrix(0.75 0 0 0.75 20.2526 -2598.56)"><tspan x="820.9137" y="4030.2188" font-family="&quot;Times&quot;" font-size="11.59" font-weight="400" font-style="normal"><![CDATA[
ﬂ
]]></tspan></text><text dx="0" dy="0" font-family="&quot;Times&quot;" font-size="11.59" font-weight="400" transform="matrix(0.75 0 0 0.75 20.2526 -2598.56)"><tspan x="826.7087" y="4030.2188" font-family="&quot;Times&quot;" font-size="11.59" font-weight="400" font-style="normal"><![CDATA[
ash: Backend Layer
]]></tspan></text><path d="M828.68,4186h170.64c.62058,0,1.2175.1188,1.7908.356.57337.2375,1.0795.5758,1.5184,1.0148.4388.4382.7769.9442,1.0145,1.5181.23749.5731.35626,1.1701.3563,1.7911v26.64c-.00004.6206-.1189,1.217-.3564,1.7905-.2375.5733-.5756,1.0795-1.0144,1.5185-.4389.4386-.94503.7765-1.51833,1.014-.57337.238-1.17029.3567-1.79087.357h-170.64c-.6207-.0003-1.2177-.119-1.79112-.357-.5733-.2375-1.07941-.5754-1.51819-1.014-.43889-.439-.77709-.9452-1.01452-1.5185-.23749-.5735-.35621-1.1699-.35617-1.7905v-26.64c-.00004-.621.11868-1.218.35617-1.7911.23743-.5739.57563-1.0799,1.01452-1.5181.43878-.439.94489-.7773,1.51819-1.0148.57342-.2372,1.17042-.356,1.79112-.356Z" transform="matrix(0.724948 0 0 0.724948 20.6151 -2598.2)" fill="#3862af"/><text dx="0" dy="0" font-family="&quot;Times&quot;" font-size="11.59" font-weight="400" transform="matrix(0.75 0 0 0.75 20.2526 -2598.56)" fill="#f5f5f5"><tspan x="830" y="4068.4063" font-family="&quot;Times&quot;" font-size="11.59" font-weight="400" font-style="normal" fill="#f5f5f5"><![CDATA[
CloudFormation (Infra)
]]></tspan></text><path d="M1021.98,4186h170.64c.6205,0,1.2175.1188,1.7909.356.5734.2375,1.0795.5758,1.5183,1.0148.4387.4382.7768.9442,1.0144,1.5181.2376.5731.3563,1.1701.3564,1.7911v26.64c-.0001.6206-.1188,1.217-.3563,1.7905-.2374.5733-.5755,1.0795-1.0144,1.5185-.4388.4386-.945.7765-1.5184,1.014-.5734.238-1.1704.3567-1.7909.357h-170.64c-.6207-.0003-1.21771-.119-1.7911-.357-.57333-.2375-1.07944-.5754-1.51822-1.014-.4389-.439-.7771-.9452-1.01459-1.5185-.23749-.5735-.35619-1.1699-.35609-1.7905v-26.64c-.0001-.621.1186-1.218.35609-1.7911.23749-.5739.57569-1.0799,1.01459-1.5181.43878-.439.94489-.7773,1.51822-1.0148.57339-.2372,1.1704-.356,1.7911-.356Z" transform="matrix(0.724948 0 0 0.724948 20.6151 -2598.2)" fill="#3862af"/><text dx="0" dy="0" font-family="&quot;Times&quot;" font-size="11.59" font-weight="400" transform="matrix(0.75 0 0 0.75 20.2526 -2598.56)" fill="#f5f5f5"><tspan x="1007.6406" y="4068.4063" font-family="&quot;Times&quot;" font-size="11.59" font-weight="400" font-style="normal" fill="#f5f5f5"><![CDATA[
boto3 (device + operation)
]]></tspan></text><path d="M908.81,3931h198.38c.5744,0,1.1434.056,1.7069.168.5633.112,1.1104.278,1.6413.4978s1.0352.4892,1.5128.8082c.4778.3193.9198.682,1.326,1.0886.4062.4062.7689.8481,1.0881,1.3259s.5887.9819.8086,1.5127c.22.5305.386,1.0778.4982,1.6416.112.5635.1681,1.1326.1681,1.7072v157.5c0,.5749-.0561,1.1437-.1681,1.7067-.1122.564-.2782,1.1109-.4982,1.6413-.2199.531-.4894,1.035-.8086,1.5125-.3192.4781-.6819.9205-1.0881,1.3265-.4062.4065-.8482.769-1.326,1.088-.4776.3189-.9819.5885-1.5128.8087-.5309.2193-1.078.3853-1.6413.498-.5635.1119-1.1325.168-1.7069.1683h-198.38c-.5745-.0003-1.14353-.0564-1.7071-.1683-.56351-.1127-1.11063-.2787-1.6415-.498-.5308-.2202-1.035-.4898-1.5127-.8087s-.9197-.6815-1.32593-1.088c-.40627-.406-.76898-.8484-1.0882-1.3265-.31921-.4775-.58877-.9815-.80859-1.5125-.21991-.5304-.38588-1.0773-.49798-1.6413-.1121-.563-.16804-1.1318-.168-1.7067v-157.5c-.00004-.5746.0559-1.1437.168-1.7072.1121-.5638.27807-1.1111.49798-1.6416.21982-.5308.48938-1.0352.80862-1.5129s.6819-.9195,1.08817-1.3257c.40623-.4066.84823-.7693,1.32593-1.0886.4777-.319.9819-.5884,1.5127-.8082s1.07799-.3858,1.6415-.4978s1.1326-.168,1.7071-.168Z" transform="matrix(0.724948 0 0 0.724948 20.6151 -2598.2)" fill="#fff"/><path d="M908.81,3931h198.38c.5744,0,1.1434.056,1.7069.168.5633.112,1.1104.278,1.6413.4978s1.0352.4892,1.5128.8082c.4778.3193.9198.682,1.326,1.0886.4062.4062.7689.8481,1.0881,1.3259s.5887.9819.8086,1.5127c.22.5305.386,1.0778.4982,1.6416.112.5635.1681,1.1326.1681,1.7072v157.5c0,.5749-.0561,1.1437-.1681,1.7067-.1122.564-.2782,1.1109-.4982,1.6413-.2199.531-.4894,1.035-.8086,1.5125-.3192.4781-.6819.9205-1.0881,1.3265-.4062.4065-.8482.769-1.326,1.088-.4776.3189-.9819.5885-1.5128.8087-.5309.2193-1.078.3853-1.6413.498-.5635.1119-1.1325.168-1.7069.1683h-198.38c-.5745-.0003-1.14353-.0564-1.7071-.1683-.56351-.1127-1.11063-.2787-1.6415-.498-.5308-.2202-1.035-.4898-1.5127-.8087s-.9197-.6815-1.32593-1.088c-.40627-.406-.76898-.8484-1.0882-1.3265-.31921-.4775-.58877-.9815-.80859-1.5125-.21991-.5304-.38588-1.0773-.49798-1.6413-.1121-.563-.16804-1.1318-.168-1.7067v-157.5c-.00004-.5746.0559-1.1437.168-1.7072.1121-.5638.27807-1.1111.49798-1.6416.21982-.5308.48938-1.0352.80862-1.5129s.6819-.9195,1.08817-1.3257c.40623-.4066.84823-.7693,1.32593-1.0886.4777-.319.9819-.5884,1.5127-.8082s1.07799-.3858,1.6415-.4978s1.1326-.168,1.7071-.168Z" transform="matrix(0.724948 0 0 0.724948 20.6151 -2598.2)" fill="none" stroke="#7599cd"/><text dx="0" dy="0" font-family="&quot;Times&quot;" font-size="10.63" font-weight="400" transform="matrix(0.75 0 0 0.75 20.2526 -2598.56)"><tspan x="879.6094" y="3816.125" font-family="&quot;Times&quot;" font-size="10.63" font-weight="400" font-style="normal"><![CDATA[
thing
]]></tspan></text><text dx="0" dy="0" font-family="&quot;Times&quot;" font-size="10.63" font-weight="400" transform="matrix(0.75 0 0 0.75 20.2526 -2598.56)"><tspan x="902.66006" y="3816.125" font-family="&quot;Times&quot;" font-size="10.63" font-weight="400" font-style="normal"><![CDATA[
ﬂ
]]></tspan></text><text dx="0" dy="0" font-family="&quot;Times&quot;" font-size="10.63" font-weight="400" transform="matrix(0.75 0 0 0.75 20.2526 -2598.56)"><tspan x="907.97506" y="3816.125" font-family="&quot;Times&quot;" font-size="10.63" font-weight="400" font-style="normal"><![CDATA[
ash: CORE
]]></tspan></text><path d="M922.68,3961h170.64c.6204,0,1.2174.1187,1.7907.356.5734.2376,1.0796.5755,1.5185,1.014.4388.4389.7769.945,1.0145,1.5185.2374.5735.3562,1.1705.3563,1.7915v26.64c-.0001.6205-.1189,1.217-.3563,1.7904-.2376.5735-.5757,1.0796-1.0145,1.5186-.4389.4387-.9451.7766-1.5185,1.014-.5733.2377-1.1703.3568-1.7907.357h-170.64c-.6207-.0002-1.21763-.1193-1.7911-.357-.57332-.2374-1.07943-.5753-1.51821-1.014-.4389-.439-.77709-.9451-1.01452-1.5183-.23749-.5737-.35621-1.1702-.35617-1.7907v-26.64c-.00004-.621.1186-1.218.3561-1.7913s.57569-1.0793,1.01459-1.518c.43878-.439.94489-.7771,1.51821-1.0147.57347-.2373,1.1704-.356,1.7911-.356Z" transform="matrix(0.724948 0 0 0.724948 20.6151 -2598.2)" fill="#eef3fc"/><path d="M922.68,3961h170.64c.6204,0,1.2174.1187,1.7907.356.5734.2376,1.0796.5755,1.5185,1.014.4388.4389.7769.945,1.0145,1.5185.2374.5735.3562,1.1705.3563,1.7915v26.64c-.0001.6205-.1189,1.217-.3563,1.7904-.2376.5735-.5757,1.0796-1.0145,1.5186-.4389.4387-.9451.7766-1.5185,1.014-.5733.2377-1.1703.3568-1.7907.357h-170.64c-.6207-.0002-1.21763-.1193-1.7911-.357-.57332-.2374-1.07943-.5753-1.51821-1.014-.4389-.439-.77709-.9451-1.01452-1.5183-.23749-.5737-.35621-1.1702-.35617-1.7907v-26.64c-.00004-.621.1186-1.218.3561-1.7913s.57569-1.0793,1.01459-1.518c.43878-.439.94489-.7771,1.51821-1.0147.57347-.2373,1.1704-.356,1.7911-.356Z" transform="matrix(0.724948 0 0 0.724948 20.6151 -2598.2)" fill="none" stroke="#7599cd"/><text dx="0" dy="0" font-family="&quot;Times&quot;" font-size="8.69" font-weight="400" transform="matrix(0.75 0 0 0.75 20.2526 -2598.56)"><tspan x="927.9219" y="3849.4688" font-family="&quot;Times&quot;" font-size="8.69" font-weight="400" font-style="normal"><![CDATA[
Manifest (thing
]]></tspan></text><text dx="0" dy="0" font-family="&quot;Times&quot;" font-size="8.69" font-weight="400" transform="matrix(0.75 0 0 0.75 20.2526 -2598.56)"><tspan x="984.9159" y="3849.4688" font-family="&quot;Times&quot;" font-size="8.69" font-weight="400" font-style="normal"><![CDATA[
ﬂ
]]></tspan></text><text dx="0" dy="0" font-family="&quot;Times&quot;" font-size="8.69" font-weight="400" transform="matrix(0.75 0 0 0.75 20.2526 -2598.56)"><tspan x="989.26089" y="3849.4688" font-family="&quot;Times&quot;" font-size="8.69" font-weight="400" font-style="normal"><![CDATA[
ash.yaml)
]]></tspan></text><path d="M922.93,4010h170.64c.6204,0,1.2174.1187,1.7907.3558.5734.2375,1.0796.5757,1.5185,1.0146.4388.4386.7769.9446,1.0145,1.5181.2375.5735.3563,1.1705.3563,1.7915v26.64c0,.6205-.1188,1.217-.3563,1.7907-.2376.5733-.5757,1.0796-1.0145,1.5185-.4389.4385-.9451.7766-1.5185,1.0142s-1.1703.3564-1.7907.3566h-170.64c-.6207-.0002-1.2177-.1191-1.79112-.3566-.5733-.2376-1.07941-.5757-1.51819-1.0142-.4389-.4389-.77709-.9452-1.01452-1.5185-.23749-.5737-.35621-1.1702-.35617-1.7907v-26.64c-.00004-.621.1186-1.218.3561-1.7915s.57569-1.0795,1.01459-1.5181c.43878-.4389.94489-.7771,1.51819-1.0144.57342-.2373,1.17042-.356,1.79112-.356Z" transform="matrix(0.724948 0 0 0.724948 20.6151 -2598.2)" fill="#eff4fc"/><path d="M922.93,4010h170.64c.6204,0,1.2174.1187,1.7907.3558.5734.2375,1.0796.5757,1.5185,1.0146.4388.4386.7769.9446,1.0145,1.5181.2375.5735.3563,1.1705.3563,1.7915v26.64c0,.6205-.1188,1.217-.3563,1.7907-.2376.5733-.5757,1.0796-1.0145,1.5185-.4389.4385-.9451.7766-1.5185,1.0142s-1.1703.3564-1.7907.3566h-170.64c-.6207-.0002-1.2177-.1191-1.79112-.3566-.5733-.2376-1.07941-.5757-1.51819-1.0142-.4389-.4389-.77709-.9452-1.01452-1.5185-.23749-.5737-.35621-1.1702-.35617-1.7907v-26.64c-.00004-.621.1186-1.218.3561-1.7915s.57569-1.0795,1.01459-1.5181c.43878-.4389.94489-.7771,1.51819-1.0144.57342-.2373,1.17042-.356,1.79112-.356Z" transform="matrix(0.724948 0 0 0.724948 20.6151 -2598.2)" fill="none" stroke="#7599cd"/><text dx="0" dy="0" font-family="&quot;Times&quot;" font-size="8.69" font-weight="400" transform="matrix(0.75 0 0 0.75 20.2526 -2598.56)"><tspan x="928.1719" y="3896.8282" font-family="&quot;Times&quot;" font-size="8.69" font-weight="400" font-style="normal"><![CDATA[
Planner (desired-state + diff)
]]></tspan></text><path d="M922.93,4059h170.64c.6204,0,1.2174.1187,1.7907.356s1.0796.5755,1.5185,1.0144c.4388.4385.7769.9446,1.0145,1.5181.2375.5735.3563,1.1705.3563,1.7915v26.64c0,.6205-.1188,1.2174-.3563,1.7907-.2376.5732-.5757,1.0793-1.0145,1.5183-.4389.4387-.9451.777-1.5185,1.0146-.5733.2374-1.1703.3562-1.7907.3564h-170.64c-.6207-.0002-1.2177-.119-1.79112-.3564-.5733-.2376-1.07941-.5757-1.51819-1.0144-.4389-.4392-.77709-.9453-1.01452-1.5185-.23749-.5733-.35621-1.1702-.35617-1.7907v-26.64c-.00004-.621.1186-1.218.3561-1.7915s.57569-1.0796,1.01459-1.5181c.43878-.4389.94489-.7771,1.51819-1.0144.57342-.2373,1.17042-.356,1.79112-.356Z" transform="matrix(0.724948 0 0 0.724948 20.6151 -2598.2)" fill="#eff4fc"/><path d="M922.93,4059h170.64c.6204,0,1.2174.1187,1.7907.356s1.0796.5755,1.5185,1.0144c.4388.4385.7769.9446,1.0145,1.5181.2375.5735.3563,1.1705.3563,1.7915v26.64c0,.6205-.1188,1.2174-.3563,1.7907-.2376.5732-.5757,1.0793-1.0145,1.5183-.4389.4387-.9451.777-1.5185,1.0146-.5733.2374-1.1703.3562-1.7907.3564h-170.64c-.6207-.0002-1.2177-.119-1.79112-.3564-.5733-.2376-1.07941-.5757-1.51819-1.0144-.4389-.4392-.77709-.9453-1.01452-1.5185-.23749-.5733-.35621-1.1702-.35617-1.7907v-26.64c-.00004-.621.1186-1.218.3561-1.7915s.57569-1.0796,1.01459-1.5181c.43878-.4389.94489-.7771,1.51819-1.0144.57342-.2373,1.17042-.356,1.79112-.356Z" transform="matrix(0.724948 0 0 0.724948 20.6151 -2598.2)" fill="none" stroke="#7599cd"/><text dx="0" dy="0" font-family="&quot;Times&quot;" font-size="8.69" font-weight="400" transform="matrix(0.75 0 0 0.75 20.2526 -2598.56)"><tspan x="928.1719" y="3944.1876" font-family="&quot;Times&quot;" font-size="8.69" font-weight="400" font-style="normal"><![CDATA[
Executor (plan / apply / destroy)
]]></tspan></text><path d="M686.6,4297h643.3c.5483,0,1.0912.053,1.6289.16.5376.107,1.0597.266,1.5663.4754.5066.2096.9878.4673,1.4438.7715.4558.3047.8775.6509,1.2652,1.0386.3877.3875.7339.8095,1.0385,1.2651.3045.4561.5617.9374.7714,1.4439.2099.5063.3682,1.0283.4753,1.5664.107.5376.1605,1.0811.1606,1.6291v150.3c-.0001.548-.0536,1.091-.1606,1.629-.1071.5376-.2654,1.0596-.4753,1.5659-.2097.5061-.4669.9878-.7714,1.4439-.3046.4552-.6508.8772-1.0385,1.2652-.3877.3876-.8094.7338-1.2652,1.038-.456.3047-.9372.562-1.4438.772-.5066.209-1.0287.368-1.5663.475-.5377.107-1.0806.1607-1.6289.161h-643.3c-.5483-.0003-1.0913-.054-1.62903-.161s-1.05997-.266-1.56647-.475c-.50653-.21-.98773-.4673-1.4436-.7715-.4559-.3047-.87762-.6509-1.2653-1.0385-.38771-.388-.73384-.8092-1.03841-1.265-.30463-.4563-.56183-.938-.77161-1.4441-.20978-.5063-.36818-1.0283-.47518-1.5659-.107-.538-.16044-1.081-.1604-1.629v-150.3c-.00004-.548.0534-1.0915.1604-1.6291.107-.5381.2654-1.0601.47518-1.5664.20978-.5065.46698-.9878.77161-1.4439.30457-.4556.6507-.8776,1.03841-1.2651.38768-.3877.8094-.7339,1.2653-1.0386.45587-.3042.9371-.5619,1.44367-.7715.50653-.2094,1.02862-.3684,1.5664-.4754s1.08073-.16,1.62903-.16Z" transform="matrix(0.724948 0 0 0.724948 29.378169 -2598.607584)" fill="#fff"/><path d="M686.6,4297h643.3c.5483,0,1.0912.053,1.6289.16.5376.107,1.0597.266,1.5663.4754.5066.2096.9878.4673,1.4438.7715.4558.3047.8775.6509,1.2652,1.0386.3877.3875.7339.8095,1.0385,1.2651.3045.4561.5617.9374.7714,1.4439.2099.5063.3682,1.0283.4753,1.5664.107.5376.1605,1.0811.1606,1.6291v150.3c-.0001.548-.0536,1.091-.1606,1.629-.1071.5376-.2654,1.0596-.4753,1.5659-.2097.5061-.4669.9878-.7714,1.4439-.3046.4552-.6508.8772-1.0385,1.2652-.3877.3876-.8094.7338-1.2652,1.038-.456.3047-.9372.562-1.4438.772-.5066.209-1.0287.368-1.5663.475-.5377.107-1.0806.1607-1.6289.161h-643.3c-.5483-.0003-1.0913-.054-1.62903-.161s-1.05997-.266-1.56647-.475c-.50653-.21-.98773-.4673-1.4436-.7715-.4559-.3047-.87762-.6509-1.2653-1.0385-.38771-.388-.73384-.8092-1.03841-1.265-.30463-.4563-.56183-.938-.77161-1.4441-.20978-.5063-.36818-1.0283-.47518-1.5659-.107-.538-.16044-1.081-.1604-1.629v-150.3c-.00004-.548.0534-1.0915.1604-1.6291.107-.5381.2654-1.0601.47518-1.5664.20978-.5065.46698-.9878.77161-1.4439.30457-.4556.6507-.8776,1.03841-1.2651.38768-.3877.8094-.7339,1.2653-1.0386.45587-.3042.9371-.5619,1.44367-.7715.50653-.2094,1.02862-.3684,1.5664-.4754s1.08073-.16,1.62903-.16Z" transform="matrix(0.724948 0 0 0.724948 20.6151 -2598.2)" fill="none" stroke="#7599cd"/><path d="M732,4349h82c.59097,0,1.1762.0578,1.75576.173.57954.115,1.1424.2857,1.68834.5118.54598.226,1.06459.5032,1.5559.832.4914.3281.946.7012,1.3639,1.1191.41786.4171.79097.8716,1.1193,1.3631.32829.491.6055,1.01.8316,1.556s.3969,1.109.51219,1.6888c.11531.5792.17301,1.1651.17301,1.7562v82c0,.5905-.0577,1.176-.17301,1.7556-.11529.5794-.28609,1.1421-.51221,1.6884-.22618.546-.50338,1.065-.83168,1.5557-.3283.4913-.70134.9468-1.1192,1.3643s-.8725.7905-1.36381,1.1186c-.4914.3284-1.01001.606-1.55599.832-.54594.2261-1.1088.397-1.6884.5114-.57953.116-1.16473.174-1.7557.174h-82c-.591,0-1.1763-.058-1.7559-.174-.5796-.1144-1.14233-.2853-1.6883-.5114-.546-.226-1.0646-.5036-1.556-.832-.4914-.3281-.94594-.7012-1.3638-1.1186s-.79094-.873-1.1193-1.3643c-.32832-.4907-.60554-1.0097-.8317-1.5557-.22611-.5463-.39683-1.109-.51212-1.6884-.1153-.5796-.17292-1.1651-.17288-1.7556v-82c-.00004-.5911.05758-1.177.17288-1.7562.11529-.5798.28601-1.1428.51212-1.6888s.50338-1.065.8317-1.5553c.32836-.4917.7014-.9467,1.1193-1.3638.41786-.4179.8724-.791,1.3638-1.1191.49138-.3288,1.00999-.606,1.5559-.832.546-.2261,1.1087-.3968,1.6884-.5118.5796-.1152,1.1649-.173,1.7559-.173Z" transform="matrix(0.724948 0 0 0.724948 20.6151 -2598.2)" fill="#fff"/><path d="M732,4349h82c.59097,0,1.1762.0578,1.75576.173.57954.115,1.1424.2857,1.68834.5118.54598.226,1.06459.5032,1.5559.832.4914.3281.946.7012,1.3639,1.1191.41786.4171.79097.8716,1.1193,1.3631.32829.491.6055,1.01.8316,1.556s.3969,1.109.51219,1.6888c.11531.5792.17301,1.1651.17301,1.7562v82c0,.5905-.0577,1.176-.17301,1.7556-.11529.5794-.28609,1.1421-.51221,1.6884-.22618.546-.50338,1.065-.83168,1.5557-.3283.4913-.70134.9468-1.1192,1.3643s-.8725.7905-1.36381,1.1186c-.4914.3284-1.01001.606-1.55599.832-.54594.2261-1.1088.397-1.6884.5114-.57953.116-1.16473.174-1.7557.174h-82c-.591,0-1.1763-.058-1.7559-.174-.5796-.1144-1.14233-.2853-1.6883-.5114-.546-.226-1.0646-.5036-1.556-.832-.4914-.3281-.94594-.7012-1.3638-1.1186s-.79094-.873-1.1193-1.3643c-.32832-.4907-.60554-1.0097-.8317-1.5557-.22611-.5463-.39683-1.109-.51212-1.6884-.1153-.5796-.17292-1.1651-.17288-1.7556v-82c-.00004-.5911.05758-1.177.17288-1.7562.11529-.5798.28601-1.1428.51212-1.6888s.50338-1.065.8317-1.5553c.32836-.4917.7014-.9467,1.1193-1.3638.41786-.4179.8724-.791,1.3638-1.1191.49138-.3288,1.00999-.606,1.5559-.832.546-.2261,1.1087-.3968,1.6884-.5118.5796-.1152,1.1649-.173,1.7559-.173Z" transform="matrix(0.724948 0 0 0.724948 20.6151 -2598.2)" fill="none" stroke="#7599cd"/><path d="M743,4418h59v10h-59v-10Z" transform="matrix(0.724948 0 0 0.724948 20.2526 -2598.56)" fill="#fbfbfb"/><text dx="0" dy="0" font-family="&quot;Times&quot;" font-size="9" font-weight="400" transform="matrix(0.724948 0 0 0.724948 20.2526 -2598.56)"><tspan x="742.7031" y="4426" font-family="&quot;Times&quot;" font-size="9" font-weight="400" font-style="normal"><![CDATA[
IoT Thing Type
]]></tspan></text><path d="M729,4433h87v10h-87v-10Z" transform="matrix(0.724948 0 0 0.724948 20.2526 -2598.56)" fill="#fbfbfb"/><text dx="0" dy="0" font-family="&quot;Times&quot;" font-size="9" font-weight="400" transform="matrix(0.724948 0 0 0.724948 20.2526 -2598.56)"><tspan x="728.96878" y="4441" font-family="&quot;Times&quot;" font-size="9" font-weight="400" font-style="normal"><![CDATA[
Group / Policy / Rules
]]></tspan></text></g><clipPath id="eK8TWdyNaRC89"><path d="M81.25001,43.750005h4837.50069v2725.000295h-4837.50069v-2725.000295Z" transform="matrix(0.24 0 0 0.24 0 0.000001)" clip-rule="evenodd"/></clipPath></g><g clip-path="url(#eK8TWdyNaRC94)"><g><path d="M12,21c4.1926,0,7.7156-2.8668,8.7157-6.7471M12,21c-4.19258,0-7.71558-2.8668-8.7157-6.7471M12,21c2.4853,0,4.5-4.0294,4.5-9s-2.0147-9-4.5-9m0,18c-2.48528,0-4.5-4.0294-4.5-9s2.01472-9,4.5-9m8.7157,11.2529C20.9013,13.5329,21,12.778,21,12c0-1.6054-.4203-3.11257-1.1569-4.41755C18.299,4.84694,15.3652,3,12,3M3.2843,14.2529C3.09871,13.5329,3,12.778,3,12c0-1.6054.42032-3.11257,1.15692-4.41755C5.70099,4.84694,8.63481,3,12,3m7.8431,4.58245C17.7397,9.40039,14.9983,10.5,12,10.5s-5.73973-1.09961-7.84308-2.91755M20.7157,14.2529C18.1334,15.6847,15.1619,16.5,12,16.5s-6.13338-.8153-8.7157-2.2471" transform="matrix(1.26866 0 0 1.26866 565.051 567.343)" fill="none" stroke="#3862af" stroke-width="1.5" stroke-linecap="round" stroke-linejoin="round"/></g><clipPath id="eK8TWdyNaRC94"><path d="M2354.3792,2363.9298h126.8658v126.8659h-126.8658v-126.8659Z" transform="matrix(0.24 0 0 0.24 0 0)" clip-rule="evenodd"/></clipPath></g><g clip-path="url(#eK8TWdyNaRC102)"><g><path d="M972,4349h82c.591,0,1.1762.0578,1.7556.173.5796.115,1.1424.2857,1.6884.5118.546.226,1.0647.5032,1.556.832.4915.3281.946.7012,1.3639,1.1191.4178.4171.791.8716,1.1193,1.3631.3282.491.6054,1.01.8316,1.556s.3969,1.109.5122,1.6888c.1154.5792.173,1.1651.173,1.7562v82c0,.5905-.0576,1.176-.173,1.7556-.1153.5794-.286,1.1421-.5122,1.6884-.2262.546-.5034,1.065-.8318,1.5557-.3282.4913-.7013.9468-1.1191,1.3643-.4179.4174-.8724.7905-1.3638,1.1186-.4913.3284-1.01.606-1.556.832-.546.2261-1.1088.397-1.6884.5114-.5795.116-1.1647.174-1.7557.174h-82c-.591,0-1.1763-.058-1.7559-.174-.57952-.1144-1.14233-.2853-1.6883-.5114-.546-.226-1.06462-.5036-1.55602-.832-.49139-.3281-.94598-.7012-1.36378-1.1186s-.791-.873-1.11931-1.3643c-.32831-.4907-.60559-1.0097-.83173-1.5557-.22616-.5463-.39679-1.109-.51208-1.6884C963.0576,4441.176,963,4440.5905,963,4440v-82c0-.5911.0576-1.177.1729-1.7562.11527-.5798.28599-1.1428.5121-1.6888s.50338-1.065.83169-1.5553c.32831-.4917.70141-.9467,1.11931-1.3638.4178-.4179.87239-.791,1.36378-1.1191.4914-.3288,1.01002-.606,1.55602-.832.54597-.2261,1.10878-.3968,1.68837-.5118.57953-.1152,1.16483-.173,1.75583-.173Z" transform="matrix(0.724948 0 0 0.724948 20.6151 -2598.2)" fill="#fff"/><path d="M972,4349h82c.591,0,1.1762.0578,1.7556.173.5796.115,1.1424.2857,1.6884.5118.546.226,1.0647.5032,1.556.832.4915.3281.946.7012,1.3639,1.1191.4178.4171.791.8716,1.1193,1.3631.3282.491.6054,1.01.8316,1.556s.3969,1.109.5122,1.6888c.1154.5792.173,1.1651.173,1.7562v82c0,.5905-.0576,1.176-.173,1.7556-.1153.5794-.286,1.1421-.5122,1.6884-.2262.546-.5034,1.065-.8318,1.5557-.3282.4913-.7013.9468-1.1191,1.3643-.4179.4174-.8724.7905-1.3638,1.1186-.4913.3284-1.01.606-1.556.832-.546.2261-1.1088.397-1.6884.5114-.5795.116-1.1647.174-1.7557.174h-82c-.591,0-1.1763-.058-1.7559-.174-.57952-.1144-1.14233-.2853-1.6883-.5114-.546-.226-1.06462-.5036-1.55602-.832-.49139-.3281-.94598-.7012-1.36378-1.1186s-.791-.873-1.11931-1.3643c-.32831-.4907-.60559-1.0097-.83173-1.5557-.22616-.5463-.39679-1.109-.51208-1.6884C963.0576,4441.176,963,4440.5905,963,4440v-82c0-.5911.0576-1.177.1729-1.7562.11527-.5798.28599-1.1428.5121-1.6888s.50338-1.065.83169-1.5553c.32831-.4917.70141-.9467,1.11931-1.3638.4178-.4179.87239-.791,1.36378-1.1191.4914-.3288,1.01002-.606,1.55602-.832.54597-.2261,1.10878-.3968,1.68837-.5118.57953-.1152,1.16483-.173,1.75583-.173Z" transform="matrix(0.724948 0 0 0.724948 20.6151 -2598.2)" fill="none" stroke="#7599cd"/><text dx="0" dy="0" font-family="&quot;Times&quot;" font-size="10" font-weight="400" transform="matrix(0.724948 0 0 0.724948 20.2526 -2598.56)"><tspan x="975.1094" y="4433" font-family="&quot;Times&quot;" font-size="10" font-weight="400" font-style="normal"><![CDATA[
S3 + DynamoDB
]]></tspan></text></g><clipPath id="eK8TWdyNaRC102"><path d="M81.25001,43.750005h4837.50069v2725.000295h-4837.50069v-2725.000295Z" transform="matrix(0.24 0 0 0.24 0 0.000001)" clip-rule="evenodd"/></clipPath></g><g clip-path="url(#eK8TWdyNaRC110)"><g><path d="M21,6.375c0,2.69239-4.0294,4.875-9,4.875s-9-2.18261-9-4.875s4.02944-4.875,9-4.875s9,2.18261,9,4.875Z" transform="matrix(1.26866 0 0 1.26866 739.401 567.343)" fill="#3862af"/><path d="M12,12.75c2.6852,0,5.1905-.5863,7.0784-1.6089.69-.3738,1.3464-.8368,1.8963-1.38436.0168.12157.0253.24436.0253.36826C21,12.8174,16.9706,15,12,15s-9-2.1826-9-4.875c0-.1239.00853-.2467.02529-.36826.54994.54756,1.20633,1.01056,1.89632,1.38436C6.80949,12.1637,9.31481,12.75,12,12.75Z" transform="matrix(1.26866 0 0 1.26866 739.401 567.343)" fill="#3862af"/><path d="M12,16.5c2.6852,0,5.1905-.5863,7.0784-1.6089.69-.3738,1.3464-.8368,1.8963-1.3844.0168.1216.0253.2444.0253.3683c0,2.6924-4.0294,4.875-9,4.875s-9-2.1826-9-4.875c0-.1239.00853-.2467.02529-.3683.54994.5476,1.20633,1.0106,1.89632,1.3844C6.80949,15.9137,9.31481,16.5,12,16.5Z" transform="matrix(1.26866 0 0 1.26866 739.401 567.343)" fill="#3862af"/><path d="M12,20.25c2.6852,0,5.1905-.5863,7.0784-1.6089.69-.3738,1.3464-.8368,1.8963-1.3844.0168.1216.0253.2444.0253.3683c0,2.6924-4.0294,4.875-9,4.875s-9-2.1826-9-4.875c0-.1239.00853-.2467.02529-.3683.54994.5476,1.20633,1.0106,1.89632,1.3844C6.80949,19.6637,9.31481,20.25,12,20.25Z" transform="matrix(1.26866 0 0 1.26866 739.401 567.343)" fill="#3862af"/></g><clipPath id="eK8TWdyNaRC110"><path d="M3080.8375,2363.9298h126.8657v126.8659h-126.8657v-126.8659Z" transform="matrix(0.24 0 0 0.24 0 0)" clip-rule="evenodd"/></clipPath></g><g clip-path="url(#eK8TWdyNaRC124)"><g><path d="M1092,4349h82c.591,0,1.1762.0578,1.7557.173.5795.115,1.1424.2857,1.6884.5118.5459.226,1.0646.5032,1.5559.832.4913.3281.9459.7012,1.3639,1.1191.4178.4171.791.8716,1.1194,1.3631.3281.491.6052,1.01.8314,1.556s.3969,1.109.5122,1.6888c.1154.5792.1731,1.1651.1731,1.7562v82c0,.5905-.0577,1.176-.1731,1.7556-.1153.5794-.286,1.1421-.5122,1.6884-.2262.546-.5033,1.065-.8315,1.5557-.3283.4913-.7015.9468-1.1193,1.3643-.418.4174-.8727.7905-1.364,1.1186-.4913.3284-1.0099.606-1.5558.832-.546.2261-1.1089.397-1.6884.5114-.5795.116-1.1647.174-1.7557.174h-82c-.591,0-1.1763-.058-1.7558-.174-.5798-.1144-1.1425-.2853-1.6885-.5114-.5459-.226-1.0645-.5036-1.5558-.832-.4915-.3281-.9461-.7012-1.3639-1.1186s-.791-.873-1.1194-1.3643c-.3282-.4907-.6055-1.0097-.8317-1.5557-.226-.5463-.3967-1.109-.512-1.6884-.1153-.5796-.1729-1.1651-.1729-1.7556v-82c0-.5911.0576-1.177.1729-1.7562.1153-.5798.286-1.1428.512-1.6888.2262-.546.5035-1.065.8318-1.5553.3283-.4917.7015-.9467,1.1193-1.3638.4178-.4179.8724-.791,1.3639-1.1191.4913-.3288,1.0099-.606,1.5558-.832.546-.2261,1.1087-.3968,1.6885-.5118.5795-.1152,1.1648-.173,1.7558-.173Z" transform="matrix(0.724948 0 0 0.724948 20.6151 -2598.2)" fill="#fff"/><path d="M1092,4349h82c.591,0,1.1762.0578,1.7557.173.5795.115,1.1424.2857,1.6884.5118.5459.226,1.0646.5032,1.5559.832.4913.3281.9459.7012,1.3639,1.1191.4178.4171.791.8716,1.1194,1.3631.3281.491.6052,1.01.8314,1.556s.3969,1.109.5122,1.6888c.1154.5792.1731,1.1651.1731,1.7562v82c0,.5905-.0577,1.176-.1731,1.7556-.1153.5794-.286,1.1421-.5122,1.6884-.2262.546-.5033,1.065-.8315,1.5557-.3283.4913-.7015.9468-1.1193,1.3643-.418.4174-.8727.7905-1.364,1.1186-.4913.3284-1.0099.606-1.5558.832-.546.2261-1.1089.397-1.6884.5114-.5795.116-1.1647.174-1.7557.174h-82c-.591,0-1.1763-.058-1.7558-.174-.5798-.1144-1.1425-.2853-1.6885-.5114-.5459-.226-1.0645-.5036-1.5558-.832-.4915-.3281-.9461-.7012-1.3639-1.1186s-.791-.873-1.1194-1.3643c-.3282-.4907-.6055-1.0097-.8317-1.5557-.226-.5463-.3967-1.109-.512-1.6884-.1153-.5796-.1729-1.1651-.1729-1.7556v-82c0-.5911.0576-1.177.1729-1.7562.1153-.5798.286-1.1428.512-1.6888.2262-.546.5035-1.065.8318-1.5553.3283-.4917.7015-.9467,1.1193-1.3638.4178-.4179.8724-.791,1.3639-1.1191.4913-.3288,1.0099-.606,1.5558-.832.546-.2261,1.1087-.3968,1.6885-.5118.5795-.1152,1.1648-.173,1.7558-.173Z" transform="matrix(0.724948 0 0 0.724948 20.6151 -2598.2)" fill="none" stroke="#7599cd"/><text dx="0" dy="0" font-family="&quot;Times&quot;" font-size="10" font-weight="400" transform="matrix(0.724948 0 0 0.724948 20.2526 -2598.56)"><tspan x="1103.3438" y="4426" font-family="&quot;Times&quot;" font-size="10" font-weight="400" font-style="normal"><![CDATA[
IoT Things + 
]]></tspan></text><text dx="0" dy="0" font-family="&quot;Times&quot;" font-size="10" font-weight="400" transform="matrix(0.724948 0 0 0.724948 20.2526 -2598.56)"><tspan x="1109.9844" y="4441" font-family="&quot;Times&quot;" font-size="10" font-weight="400" font-style="normal"><![CDATA[
Certi
]]></tspan></text><text dx="0" dy="0" font-family="&quot;Times&quot;" font-size="10" font-weight="400" transform="matrix(0.724948 0 0 0.724948 20.2526 -2598.56)"><tspan x="1131.0944" y="4441" font-family="&quot;Times&quot;" font-size="10" font-weight="400" font-style="normal"><![CDATA[
ﬁ
]]></tspan></text><text dx="0" dy="0" font-family="&quot;Times&quot;" font-size="10" font-weight="400" transform="matrix(0.724948 0 0 0.724948 20.2526 -2598.56)"><tspan x="1136.0944" y="4441" font-family="&quot;Times&quot;" font-size="10" font-weight="400" font-style="normal"><![CDATA[
cate
]]></tspan></text></g><clipPath id="eK8TWdyNaRC124"><path d="M81.25001,43.750005h4837.50069v2725.000295h-4837.50069v-2725.000295Z" transform="matrix(0.24 0 0 0.24 0 0.000001)" clip-rule="evenodd"/></clipPath></g><g clip-path="url(#eK8TWdyNaRC129)"><g><path d="M15,9h3.75M15,12h3.75M15,15h3.75M4.5,19.5h15c1.2426,0,2.25-1.0074,2.25-2.25v-10.5c0-1.24264-1.0074-2.25-2.25-2.25h-15c-1.24264,0-2.25,1.00736-2.25,2.25v10.5c0,1.2426,1.00736,2.25,2.25,2.25Zm6-10.125c0,1.0355-.83947,1.875-1.875,1.875s-1.875-.8395-1.875-1.875.83947-1.875,1.875-1.875s1.875.83947,1.875,1.875Zm1.2939,6.3364c-.945.5033-2.02369.7886-3.16906.7886s-2.2241-.2853-3.16903-.7886C5.92986,14.4207,7.16983,13.5,8.62484,13.5s2.69496.9207,3.16906,2.2114Z" transform="matrix(1.26866 0 0 1.26866 826.032 567.343)" fill="none" stroke="#3862af" stroke-width="1.5" stroke-linecap="round" stroke-linejoin="round"/></g><clipPath id="eK8TWdyNaRC129"><path d="M3441.801,2363.9298h126.866v126.8659h-126.866v-126.8659Z" transform="matrix(0.24 0 0 0.24 0 0)" clip-rule="evenodd"/></clipPath></g><g clip-path="url(#eK8TWdyNaRC137)"><g><path d="M1214,4349h82c.591,0,1.1762.0578,1.7557.173.5795.115,1.1423.2857,1.6883.5118.5459.226,1.0646.5032,1.5559.832.4913.3281.946.7012,1.364,1.1191.4178.4171.791.8716,1.1193,1.3631.3282.491.6054,1.01.8316,1.556s.3969,1.109.5121,1.6888c.1154.5792.1731,1.1651.1731,1.7562v82c0,.5905-.0577,1.176-.1731,1.7556-.1152.5794-.2859,1.1421-.5121,1.6884-.2262.546-.5034,1.065-.8318,1.5557-.3282.4913-.7013.9468-1.1191,1.3643-.418.4174-.8727.7905-1.364,1.1186-.4913.3284-1.01.606-1.5559.832-.546.2261-1.1088.397-1.6883.5114-.5795.116-1.1647.174-1.7557.174h-82c-.591,0-1.1763-.058-1.7558-.174-.5798-.1144-1.1425-.2853-1.6884-.5114-.546-.226-1.0647-.5036-1.556-.832-.4914-.3281-.946-.7012-1.3638-1.1186s-.7909-.873-1.1193-1.3643c-.3283-.4907-.6056-1.0097-.8318-1.5557-.226-.5463-.3967-1.109-.512-1.6884-.1153-.5796-.1729-1.1651-.1729-1.7556v-82c0-.5911.0576-1.177.1729-1.7562.1153-.5798.286-1.1428.512-1.6888.2262-.546.5035-1.065.8318-1.5553.3284-.4917.7015-.9467,1.1193-1.3638.4178-.4179.8724-.791,1.3638-1.1191.4913-.3288,1.01-.606,1.556-.832.5459-.2261,1.1086-.3968,1.6884-.5118.5795-.1152,1.1648-.173,1.7558-.173Z" transform="matrix(0.724948 0 0 0.724948 20.6151 -2598.2)" fill="#fff"/><path d="M1214,4349h82c.591,0,1.1762.0578,1.7557.173.5795.115,1.1423.2857,1.6883.5118.5459.226,1.0646.5032,1.5559.832.4913.3281.946.7012,1.364,1.1191.4178.4171.791.8716,1.1193,1.3631.3282.491.6054,1.01.8316,1.556s.3969,1.109.5121,1.6888c.1154.5792.1731,1.1651.1731,1.7562v82c0,.5905-.0577,1.176-.1731,1.7556-.1152.5794-.2859,1.1421-.5121,1.6884-.2262.546-.5034,1.065-.8318,1.5557-.3282.4913-.7013.9468-1.1191,1.3643-.418.4174-.8727.7905-1.364,1.1186-.4913.3284-1.01.606-1.5559.832-.546.2261-1.1088.397-1.6883.5114-.5795.116-1.1647.174-1.7557.174h-82c-.591,0-1.1763-.058-1.7558-.174-.5798-.1144-1.1425-.2853-1.6884-.5114-.546-.226-1.0647-.5036-1.556-.832-.4914-.3281-.946-.7012-1.3638-1.1186s-.7909-.873-1.1193-1.3643c-.3283-.4907-.6056-1.0097-.8318-1.5557-.226-.5463-.3967-1.109-.512-1.6884-.1153-.5796-.1729-1.1651-.1729-1.7556v-82c0-.5911.0576-1.177.1729-1.7562.1153-.5798.286-1.1428.512-1.6888.2262-.546.5035-1.065.8318-1.5553.3284-.4917.7015-.9467,1.1193-1.3638.4178-.4179.8724-.791,1.3638-1.1191.4913-.3288,1.01-.606,1.556-.832.5459-.2261,1.1086-.3968,1.6884-.5118.5795-.1152,1.1648-.173,1.7558-.173Z" transform="matrix(0.724948 0 0 0.724948 20.6151 -2598.2)" fill="none" stroke="#7599cd"/><text dx="0" dy="0" font-family="&quot;Times&quot;" font-size="10" font-weight="400" transform="matrix(0.724948 0 0 0.724948 20.2526 -2598.56)"><tspan x="1221.3281" y="4433" font-family="&quot;Times&quot;" font-size="10" font-weight="400" font-style="normal"><![CDATA[
IoT Jobs / OTA
]]></tspan></text></g><clipPath id="eK8TWdyNaRC137"><path d="M81.25001,43.750005h4837.50069v2725.000295h-4837.50069v-2725.000295Z" transform="matrix(0.24 0 0 0.24 0 0.000001)" clip-rule="evenodd"/></clipPath></g><g clip-path="url(#eK8TWdyNaRC151)"><g><path d="M10,9.25c-.41421,0-.75.33579-.75.75v.01c0,.4142.33579.75.75.75h.01c.4142,0,.75-.3358.75-.75v-.01c0-.41421-.3358-.75-.75-.75h-.01Z" transform="matrix(1.52239 0 0 1.52239 914.476 567.343)" fill="#3862af"/><path d="M6,13.25c-.41421,0-.75.3358-.75.75v.01c0,.4142.33579.75.75.75h.01c.41421,0,.75-.3358.75-.75v-.01c0-.4142-.33579-.75-.75-.75h-.01Z" transform="matrix(1.52239 0 0 1.52239 914.476 567.343)" fill="#3862af"/><path d="M8,13.25c-.41421,0-.75.3358-.75.75v.01c0,.4142.33579.75.75.75h.01c.41421,0,.75-.3358.75-.75v-.01c0-.4142-.33579-.75-.75-.75h-.01Z" transform="matrix(1.52239 0 0 1.52239 914.476 567.343)" fill="#3862af"/><path d="M9.25,14c0-.4142.33579-.75.75-.75h.01c.4142,0,.75.3358.75.75v.01c0,.4142-.3358.75-.75.75h-.01c-.41421,0-.75-.3358-.75-.75v-.01Z" transform="matrix(1.52239 0 0 1.52239 914.476 567.343)" fill="#3862af"/><path d="M12,11.25c-.4142,0-.75.3358-.75.75v.01c0,.4142.3358.75.75.75h.01c.4142,0,.75-.3358.75-.75v-.01c0-.4142-.3358-.75-.75-.75h-.01Z" transform="matrix(1.52239 0 0 1.52239 914.476 567.343)" fill="#3862af"/><path d="M12,13.25c-.4142,0-.75.3358-.75.75v.01c0,.4142.3358.75.75.75h.01c.4142,0,.75-.3358.75-.75v-.01c0-.4142-.3358-.75-.75-.75h-.01Z" transform="matrix(1.52239 0 0 1.52239 914.476 567.343)" fill="#3862af"/><path d="M13.25,12c0-.4142.3358-.75.75-.75h.01c.4142,0,.75.3358.75.75v.01c0,.4142-.3358.75-.75.75h-.01c-.4142,0-.75-.3358-.75-.75v-.01Z" transform="matrix(1.52239 0 0 1.52239 914.476 567.343)" fill="#3862af"/><path d="M11.25,10.005c0-.41697.338-.755.755-.755h2c.417,0,.755.33803.755.755s-.338.755-.755.755h-2c-.417,0-.755-.338-.755-.755Z" transform="matrix(1.52239 0 0 1.52239 914.476 567.343)" fill="#3862af"/><path d="M6.005,11.25c-.41697,0-.755.338-.755.755s.33803.755.755.755h4c.417,0,.755-.338.755-.755s-.338-.755-.755-.755h-4Z" transform="matrix(1.52239 0 0 1.52239 914.476 567.343)" fill="#3862af"/><path d="M5.75,2c.41421,0,.75.33579.75.75v1.25h7v-1.25c0-.41421.3358-.75.75-.75s.75.33579.75.75L15,4h.25C16.7688,4,18,5.23122,18,6.75v8.5C18,16.7688,16.7688,18,15.25,18h-10.5C3.23122,18,2,16.7688,2,15.25v-8.5C2,5.23122,3.23122,4,4.75,4L5,4v-1.25c0-.41421.33579-.75.75-.75Zm-1,5.5c-.69036,0-1.25.55964-1.25,1.25v6.5c0,.6904.55964,1.25,1.25,1.25h10.5c.6904,0,1.25-.5596,1.25-1.25v-6.5c0-.69036-.5596-1.25-1.25-1.25h-10.5Z" transform="matrix(1.52239 0 0 1.52239 914.476 567.343)" fill="#3862af" fill-rule="evenodd"/></g><clipPath id="eK8TWdyNaRC151"><path d="M3810.3162,2363.9298h126.866v126.8659h-126.866v-126.8659Z" transform="matrix(0.24 0 0 0.24 0 0)" clip-rule="evenodd"/></clipPath></g><g transform="matrix(1 0 0 1.06579 0 -38.454382)" clip-path="url(#eK8TWdyNaRC159)"><g><path d="M852,4349h82c.59097,0,1.1762.0578,1.7558.173.5796.115,1.14236.2857,1.6883.5118.54598.226,1.0646.5032,1.556.832.49138.3281.94597.7012,1.36388,1.1191.41782.4171.79089.8716,1.1192,1.3631.32831.491.60552,1.01.83162,1.556s.39696,1.109.5122,1.6888c.1153.5792.173,1.1651.173,1.7562v82c0,.5905-.0576,1.176-.1729,1.7556-.1153.5794-.2861,1.1421-.5122,1.6884-.22613.546-.5034,1.065-.8317,1.5557-.3283.4913-.7014.9468-1.11922,1.3643s-.8725.7905-1.36389,1.1186c-.4914.3284-1.01001.606-1.55599.832-.54594.2261-1.1087.397-1.68834.5114-.57956.116-1.16479.174-1.75576.174h-82c-.59092,0-1.1762-.058-1.75583-.174-.57967-.1144-1.14247-.2853-1.68847-.5114-.54591-.226-1.0646-.5036-1.55592-.832-.49138-.3281-.94592-.7012-1.36378-1.1186s-.79094-.873-1.1193-1.3643c-.3283-.4907-.60554-1.0097-.8317-1.5557-.22611-.5463-.39683-1.109-.51212-1.6884C843.0576,4441.176,843,4440.5905,843,4440v-82c0-.5911.0576-1.177.1729-1.7562.11527-.5798.28599-1.1428.5121-1.6888s.5034-1.065.8317-1.5553c.32836-.4917.7014-.9467,1.1193-1.3638.41786-.4179.8724-.791,1.3637-1.1191.4914-.3288,1.01009-.606,1.556-.832.546-.2261,1.1088-.3968,1.68847-.5118.57963-.1152,1.16491-.173,1.75583-.173Z" transform="matrix(0.724948 0 0 0.724948 20.6151 -2598.2)" fill="#fff"/><path d="M852,4349h82c.59097,0,1.1762.0578,1.7558.173.5796.115,1.14236.2857,1.6883.5118.54598.226,1.0646.5032,1.556.832.49138.3281.94597.7012,1.36388,1.1191.41782.4171.79089.8716,1.1192,1.3631.32831.491.60552,1.01.83162,1.556s.39696,1.109.5122,1.6888c.1153.5792.173,1.1651.173,1.7562v82c0,.5905-.0576,1.176-.1729,1.7556-.1153.5794-.2861,1.1421-.5122,1.6884-.22613.546-.5034,1.065-.8317,1.5557-.3283.4913-.7014.9468-1.11922,1.3643s-.8725.7905-1.36389,1.1186c-.4914.3284-1.01001.606-1.55599.832-.54594.2261-1.1087.397-1.68834.5114-.57956.116-1.16479.174-1.75576.174h-82c-.59092,0-1.1762-.058-1.75583-.174-.57967-.1144-1.14247-.2853-1.68847-.5114-.54591-.226-1.0646-.5036-1.55592-.832-.49138-.3281-.94592-.7012-1.36378-1.1186s-.79094-.873-1.1193-1.3643c-.3283-.4907-.60554-1.0097-.8317-1.5557-.22611-.5463-.39683-1.109-.51212-1.6884C843.0576,4441.176,843,4440.5905,843,4440v-82c0-.5911.0576-1.177.1729-1.7562.11527-.5798.28599-1.1428.5121-1.6888s.5034-1.065.8317-1.5553c.32836-.4917.7014-.9467,1.1193-1.3638.41786-.4179.8724-.791,1.3637-1.1191.4914-.3288,1.01009-.606,1.556-.832.546-.2261,1.1088-.3968,1.68847-.5118.57963-.1152,1.16491-.173,1.75583-.173Z" transform="matrix(0.724948 0 0 0.724948 20.6151 -2598.2)" fill="none" stroke="#7599cd"/><text dx="0" dy="0" font-family="&quot;Times&quot;" font-size="10" font-weight="400" transform="matrix(0.724948 0 0 0.724948 20.2526 -2598.56)"><tspan x="869.4375" y="4433" font-family="&quot;Times&quot;" font-size="10" font-weight="400" font-style="normal"><![CDATA[
IAM Roles
]]></tspan></text></g><clipPath id="eK8TWdyNaRC159"><path d="M81.25001,43.750005h4837.50069v2725.000295h-4837.50069v-2725.000295Z" transform="matrix(0.24 0 0 0.24 0 0.000001)" clip-rule="evenodd"/></clipPath></g><g clip-path="url(#eK8TWdyNaRC164)"><g><path d="M15,19.1276c.8329.2424,1.7138.3724,2.625.3724c1.4787,0,2.8775-.3424,4.1214-.9522.0024-.0573.0036-.1149.0036-.1728c0-2.2782-1.846899-4.125-4.125-4.125-1.4181,0-2.669.7155-3.4114,1.8052m0,0C13.129,14.085,11.0329,12.75,8.625,12.75c-3.52082,0-6.375,2.8542-6.375,6.375c0,.0365.00031.073.00092.1093C4.11264,20.3552,6.29353,21,8.625,21s4.5124-.6448,6.3741-1.7657c.0006-.0355.0009-.0711.0009-.1067v-.0026c0-1.1129-.2852-2.1592-.7864-3.0698ZM12,6.375C12,8.23896,10.489,9.75,8.625,9.75s-3.375-1.51104-3.375-3.375s1.51104-3.375,3.375-3.375s3.375,1.51104,3.375,3.375Zm8.25,2.25c0,1.4497-1.1753,2.625-2.625,2.625s-2.625-1.1753-2.625-2.625s1.1753-2.625,2.625-2.625s2.625,1.17525,2.625,2.625Z" transform="matrix(1.26866 0 0 1.26866 652.407 567.343)" fill="none" stroke="#3862af" stroke-width="1.5" stroke-linecap="round" stroke-linejoin="round"/></g><clipPath id="eK8TWdyNaRC164"><path d="M2718.3634,2363.9298h126.8659v126.8659h-126.8659v-126.8659Z" transform="matrix(0.24 0 0 0.24 0 0)" clip-rule="evenodd"/></clipPath></g><g clip-path="url(#eK8TWdyNaRC170)"><g><text dx="0" dy="0" font-family="&quot;Times&quot;" font-size="11.59" font-weight="400" transform="matrix(0.75 0 0 0.75 20.2526 -2598.56)"><tspan x="664.5156" y="4173.7658" font-family="&quot;Times&quot;" font-size="11.59" font-weight="400" font-style="normal"><![CDATA[
AWS & Region
]]></tspan></text></g><clipPath id="eK8TWdyNaRC170"><path d="M81.25001,43.750005h4837.50069v2725.000295h-4837.50069v-2725.000295Z" transform="matrix(0.24 0 0 0.24 0 0.000001)" clip-rule="evenodd"/></clipPath></g><g clip-path="url(#eK8TWdyNaRC175)"><g><path d="M15.5904,14.3696c.1044.4432.1596.9054.1596,1.3804c0,3.3137-2.6863,6-6,6v-4.7997m0,0c2.1494-.4363,4.1319-1.3322,5.8404-2.5807C19.3244,11.6411,21.75,7.22874,21.75,2.25c-4.9785.00021-9.3905,2.42586-12.11878,6.15975C8.38285,10.1183,7.48701,12.1007,7.05072,14.25c-.02105.1037-.04103.2078-.05993.3123.71912.9069,1.54092,1.7287,2.44783,2.4478.10417-.0189.20797-.0388.31138-.0598ZM9.63122,8.40975C9.18777,8.30528,8.72534,8.25,8.25,8.25c-3.31371,0-6,2.6863-6,6h4.80072M4.81191,16.6408C3.71213,17.4612,3,18.7724,3,20.25c0,.2369.0183.4695.05356.6964.22698.0353.45957.0536.69644.0536c1.47758,0,2.78883-.7121,3.60925-1.8119M16.5,9c0,.82843-.6716,1.5-1.5,1.5s-1.5-.67157-1.5-1.5.6716-1.5,1.5-1.5s1.5.67157,1.5,1.5Z" transform="matrix(0.483299 0 0 0.483299 635.915 165.301)" fill="none" stroke="#f5f5f5" stroke-width="1.5" stroke-linecap="round" stroke-linejoin="round"/></g><clipPath id="eK8TWdyNaRC175"><path d="M2649.6444,688.75588h48.3296v48.32982h-48.3296v-48.32982Z" transform="matrix(0.24 0 0 0.24 0 0)" clip-rule="evenodd"/></clipPath></g><g clip-path="url(#eK8TWdyNaRC180)"><g><path d="M6.95498,1.45025C6.980541,1.19465,7.19562,1,7.45249,1h1.09502c.25687,0,.47195.19465.49751.45025l.16984,1.69836c.48376.12076.93964.31197,1.35604.56211L11.892,2.62984c.1988-.16267.4885-.14822.6702.03342l.7743.77429c.1816.18164.1961.47136.0334.67017L12.2891,5.42874c.2502.41652.4415.87251.5623,1.3564l1.6984.16984c.2556.025561.4502.24064.4502.49751v1.09502c0,.25687-.1946.47195-.4502.49751l-1.6984.16984c-.1208.48374-.312.93954-.5621,1.35604l1.0814,1.3216c.1626.1988.1482.4885-.0335.6702l-.7743.7743c-.1816.1816-.4713.1961-.6701.0334l-1.3216-1.0813c-.4165.2502-.87247.4415-1.35634.5623l-.16984,1.6984c-.02556.2556-.24064.4502-.49751.4502h-1.09502c-.25687,0-.471949-.1946-.49751-.4502l-.16984-1.6984c-.48376-.1208-.93963-.312-1.35607-.5621L4.10799,13.3702c-.19882.1626-.48854.1482-.67018-.0335l-.77429-.7743c-.18164-.1816-.19609-.4713-.03342-.6701l1.08083-1.321c-.25025-.4166-.44153-.872549-.56232-1.35644L1.45025,9.04502C1.19465,9.01946,1,8.80438,1,8.54751v-1.09502c0-.25687.19465-.471949.45025-.49751l1.69836-.16984c.12075-.48374.31195-.93959.56208-1.35601L2.62935,4.1075c-.16267-.19881-.14822-.48854.03342-.67017l.77429-.7743c.18164-.18163.47136-.19608.67018-.03342L5.4288,3.71089c.41651-.25023.87247-.4415,1.35634-.56228l.16984-1.69836ZM6,8c0,.53781.21228,1.02604.55761,1.38547l.05692.05692C6.97396,9.78772,7.46219,10,8,10c1.10457,0,2-.89543,2-2c0-.53781-.21228-1.02604-.55761-1.38547l-.05692-.05692C9.02604,6.21228,8.53781,6,8,6C6.89543,6,6,6.89543,6,8Z" transform="matrix(0.724948 0 0 0.724948 722.727 165.301)" fill="#f5f5f5" fill-rule="evenodd"/></g><clipPath id="eK8TWdyNaRC180"><path d="M3011.3634,688.75588h48.3296v48.32982h-48.3296v-48.32982Z" transform="matrix(0.24 0 0 0.24 0 0)" clip-rule="evenodd"/></clipPath></g><g clip-path="url(#eK8TWdyNaRC185)"><g><path d="M20.25,14.1499v4.2501c0,1.0944-.7869,2.0359-1.8718,2.18-2.0867.277-4.2158.42-6.3782.42s-4.29146-.143-6.37815-.42C4.5369,20.4359,3.75,19.4944,3.75,18.4v-4.2501m0,0c.19361.165.41984.2953.67289.3795C6.80469,15.3212,9.35229,15.75,12,15.75s5.1953-.4288,7.5771-1.2206c.2531-.0841.4793-.2144.6729-.3795.471899-.4023.75-1.011.75-1.661v-3.78321c0-1.08094-.7679-2.01487-1.8369-2.17483-1.1254-.16839-2.2636-.29771-3.4131-.38654C14.5126,6.0487,13.262,6,12,6s-2.51256.0487-3.75.14432M3.75,14.1499c-.47192-.4023-.75-1.011-.75-1.661v-3.78321c0-1.08094.7679-2.01487,1.83694-2.17483C5.96233,6.36247,7.10049,6.23315,8.25,6.14432m7.5,0v-.89432C15.75,4.00736,14.7426,3,13.5,3h-3C9.25736,3,8.25,4.00736,8.25,5.25v.89432M12,12.75h.0075v.0075h-.0075v-.0075Z" transform="matrix(0.483299 0 0 0.483299 817.188 195.749)" fill="none" stroke="#f5f5f5" stroke-width="1.5" stroke-linecap="round" stroke-linejoin="round"/></g><clipPath id="eK8TWdyNaRC185"><path d="M3404.9498,815.6221h48.3298v48.3298h-48.3298v-48.3298Z" transform="matrix(0.24 0 0 0.24 0 0)" clip-rule="evenodd"/></clipPath></g><g clip-path="url(#eK8TWdyNaRC190)"><g><path d="M8.25,3v1.5M4.5,8.25h-1.5m18,0h-1.5M4.5,12L3,12m18,0h-1.5m-15,3.75h-1.5m18,0h-1.5M8.25,19.5v1.5M12,3v1.5m0,15v1.5M15.75,3v1.5m0,15v1.5m-9-1.5h10.5c1.2426,0,2.25-1.0074,2.25-2.25v-10.5c0-1.24264-1.0074-2.25-2.25-2.25h-10.5C5.50736,4.5,4.5,5.50736,4.5,6.75v10.5c0,1.2426,1.00736,2.25,2.25,2.25Zm.75-12h9v9h-9v-9Z" transform="matrix(0.483299 0 0 0.483299 722.727 195.749)" fill="none" stroke="#f5f5f5" stroke-width="1.5" stroke-linecap="round" stroke-linejoin="round"/></g><clipPath id="eK8TWdyNaRC190"><path d="M3011.3634,815.6221h48.3296v48.3298h-48.3296v-48.3298Z" transform="matrix(0.24 0 0 0.24 0 0)" clip-rule="evenodd"/></clipPath></g><g clip-path="url(#eK8TWdyNaRC195)"><g><path d="M11.4194,15.1694L17.25,21c1.0355,1.0355,2.7145,1.0355,3.75,0s1.0355-2.7145,0-3.75l-5.8767-5.8767m-3.3637-1.2047l.1021-.0841c.8331-.68609.995401-1.87494.9045-2.95039-.0107-.12662-.0162-.25473-.0162-.38411c0-2.48528,2.0147-4.5,4.5-4.5.6603,0,1.2875.14223,1.8524.39774L15.8262,5.92397c.2561,1.11566,1.1343,1.99388,2.25,2.25l3.2761-3.27618c.2555.56489.3977,1.19194.3977,1.85221c0,2.48528-2.0147,4.5-4.5,4.5-.1294,0-.2575-.0055-.3841-.0162-.5801-.049-1.1932-.0244-1.7426.1395-.4691.1399-.8918.3813-1.2078.765l-2.4961,3.0311m.3402-5.0008l-1.745,1.437-6.8365,5.6301c-.58766.4839-.9281,1.2053-.9281,1.9666c0,1.4071,1.14064,2.5477,2.54768,2.5477.76129,0,1.48269-.3404,1.96664-.9281l4.65508-5.6525m-1.4048-3.5638L5.90901,7.5L4.5,7.5L2.25,3.75l1.5-1.5L7.5,4.5v1.40901l4.2596,4.25959M18.375,18.375L15.75,15.75M4.86723,19.125h.0075v.0075h-.0075v-.0075Z" transform="matrix(0.483299 0 0 0.483299 635.915 195.749)" fill="none" stroke="#f5f5f5" stroke-width="1.5" stroke-linecap="round" stroke-linejoin="round"/></g><clipPath id="eK8TWdyNaRC195"><path d="M2649.6444,815.6221h48.3296v48.3298h-48.3296v-48.3298Z" transform="matrix(0.24 0 0 0.24 0 0)" clip-rule="evenodd"/></clipPath></g><g clip-path="url(#eK8TWdyNaRC201)"><g><path d="M7.50183,6h3.74587.0023h3.3799c1.8616.00268,3.37,1.51269,3.37,3.375v9.375c1.6568,0,3-1.3432,3-3v-9.64179c0-1.50539-1.1248-2.81161-2.6641-2.93937-.2237-.01857-.4479-.03563-.6726-.05117C17.1633,2.15647,16.1583,1.5,15,1.5h-1.5c-1.1583,0-2.1633.65647-2.6632,1.61765-.2247.01554-.449.03261-.6729.05119C8.66165,3.29353,7.55421,4.54069,7.50183,6ZM13.5,3c-.8284,0-1.5.67157-1.5,1.5h4.5c0-.82843-.6716-1.5-1.5-1.5h-1.5Z" transform="matrix(0.483299 0 0 0.483299 817.188 165.301)" fill="#f5f5f5" fill-rule="evenodd"/><path d="M3,9.375C3,8.33947,3.83947,7.5,4.875,7.5h9.75c1.0355,0,1.875.83947,1.875,1.875v11.25c0,1.0355-.8395,1.875-1.875,1.875h-9.75C3.83947,22.5,3,21.6605,3,20.625v-11.25ZM6,12c0-.4142.33579-.75.75-.75h.0075c.41421,0,.75.3358.75.75v.0075c0,.4142-.33579.75-.75.75h-.0075c-.41421,0-.75-.3358-.75-.75L6,12Zm2.25,0c0-.4142.33579-.75.75-.75h3.75c.4142,0,.75.3358.75.75s-.3358.75-.75.75h-3.75c-.41421,0-.75-.3358-.75-.75ZM6,15c0-.4142.33579-.75.75-.75h.0075c.41421,0,.75.3358.75.75v.0075c0,.4142-.33579.75-.75.75h-.0075c-.41421,0-.75-.3358-.75-.75L6,15Zm2.25,0c0-.4142.33579-.75.75-.75h3.75c.4142,0,.75.3358.75.75s-.3358.75-.75.75h-3.75c-.41421,0-.75-.3358-.75-.75ZM6,18c0-.4142.33579-.75.75-.75h.0075c.41421,0,.75.3358.75.75v.0075c0,.4142-.33579.75-.75.75h-.0075c-.41421,0-.75-.3358-.75-.75L6,18Zm2.25,0c0-.4142.33579-.75.75-.75h3.75c.4142,0,.75.3358.75.75s-.3358.75-.75.75h-3.75c-.41421,0-.75-.3358-.75-.75Z" transform="matrix(0.483299 0 0 0.483299 817.188 165.301)" fill="#f5f5f5" fill-rule="evenodd"/></g><clipPath id="eK8TWdyNaRC201"><path d="M3404.9498,688.75588h48.3298v48.32982h-48.3298v-48.32982Z" transform="matrix(0.24 0 0 0.24 0 0)" clip-rule="evenodd"/></clipPath></g><g clip-path="url(#eK8TWdyNaRC211)"><g><path d="M6.5,2.25c0-.41421-.33579-.75-.75-.75s-.75.33579-.75.75v3c0,.41421.33579.75.75.75s.75-.33579.75-.75v-.75h6.75c.4142,0,.75-.33579.75-.75s-.3358-.75-.75-.75L6.5,3v-.75Z" transform="matrix(0.724948 0 0 0.724948 693.729 315.728)" fill="#3862af"/><path d="M11,6.5c0-.41421-.3358-.75-.75-.75s-.75.33579-.75.75v3c0,.41421.33579.75.75.75s.75-.33579.75-.75v-.75h2.25c.4142,0,.75-.33579.75-.75s-.3358-.75-.75-.75h-2.25v-.75Z" transform="matrix(0.724948 0 0 0.724948 693.729 315.728)" fill="#3862af"/><path d="M5.75,10c.41421,0,.75.3358.75.75v.75h6.75c.4142,0,.75.3358.75.75s-.3358.75-.75.75h-6.75v.75c0,.4142-.33579.75-.75.75s-.75-.3358-.75-.75v-3c0-.4142.33579-.75.75-.75Z" transform="matrix(0.724948 0 0 0.724948 693.729 315.728)" fill="#3862af"/><path d="M2.75,7.25h5.75v1.5h-5.75C2.33579,8.75,2,8.41421,2,8s.33579-.75.75-.75Z" transform="matrix(0.724948 0 0 0.724948 693.729 315.728)" fill="#3862af"/><path d="M4,3h-1.25C2.33579,3,2,3.33579,2,3.75s.33579.75.75.75h1.25L4,3Z" transform="matrix(0.724948 0 0 0.724948 693.729 315.728)" fill="#3862af"/><path d="M2.75,11.5h1.25v1.5h-1.25c-.41421,0-.75-.3358-.75-.75s.33579-.75.75-.75Z" transform="matrix(0.724948 0 0 0.724948 693.729 315.728)" fill="#3862af"/></g><clipPath id="eK8TWdyNaRC211"><path d="M2890.5386,1315.5342h48.3299v48.3291h-48.3299v-48.3291Z" transform="matrix(0.24 0 0 0.24 0 0)" clip-rule="evenodd"/></clipPath></g><g clip-path="url(#eK8TWdyNaRC216)"><g><path d="M14.25,9.75L16.5,12l-2.25,2.25m-4.5,0L7.5,12L9.75,9.75M6,20.25h12c1.2426,0,2.25-1.0074,2.25-2.25v-12c0-1.24264-1.0074-2.25-2.25-2.25h-12C4.75736,3.75,3.75,4.75736,3.75,6v12c0,1.2426,1.00736,2.25,2.25,2.25Z" transform="matrix(0.483299 0 0 0.483299 693.729 352.7)" fill="none" stroke="#3862af" stroke-width="1.5" stroke-linecap="round" stroke-linejoin="round"/></g><clipPath id="eK8TWdyNaRC216"><path d="M2890.5386,1469.585h48.3299v48.3298h-48.3299v-48.3298Z" transform="matrix(0.24 0 0 0.24 0 0)" clip-rule="evenodd"/></clipPath></g><g clip-path="url(#eK8TWdyNaRC221)"><g><path d="M19.5,14.25v-2.625c0-1.86396-1.511-3.375-3.375-3.375h-1.5c-.6213,0-1.125-.50368-1.125-1.125v-1.5c0-1.86396-1.511-3.375-3.375-3.375h-1.875M9,16.5v.75m3-3v3M15,12v5.25m-4.5-15h-4.875c-.62132,0-1.125.50368-1.125,1.125v17.25c0,.6213.50368,1.125,1.125,1.125h12.75c.6213,0,1.125-.5037,1.125-1.125v-9.375c0-4.97056-4.0294-9-9-9Z" transform="matrix(0.483299 0 0 0.483299 693.729 280.206)" fill="none" stroke="#3862af" stroke-width="1.5" stroke-linecap="round" stroke-linejoin="round"/></g><clipPath id="eK8TWdyNaRC221"><path d="M2890.5386,1167.5234h48.3299v48.3299h-48.3299v-48.3299Z" transform="matrix(0.24 0 0 0.24 0 0)" clip-rule="evenodd"/></clipPath></g><g clip-path="url(#eK8TWdyNaRC226)"><g><path d="M2.25,15c0,2.4853,2.01472,4.5,4.5,4.5h11.25c2.0711,0,3.75-1.6789,3.75-3.75c0-1.6021-1.0047-2.9695-2.4184-3.5067.1091-.3109.1684-.6452.1684-.9933c0-1.65685-1.3431-3-3-3-.3233,0-.6346.05113-.9263.14575C14.9765,6.1526,12.9312,4.5,10.5,4.5c-2.8995,0-5.25,2.35051-5.25,5.25c0,.3332.03105.6592.0904.9752C3.54555,11.3167,2.25,13.0071,2.25,15Z" transform="matrix(0.543711 0 0 0.543711 621.959 442.594)" fill="none" stroke="#f5f5f5" stroke-width="1.5" stroke-linecap="round" stroke-linejoin="round"/></g><clipPath id="eK8TWdyNaRC226"><path d="M2591.4976,1844.1416h54.3711v54.3711h-54.3711v-54.3711Z" transform="matrix(0.24 0 0 0.24 0 0)" clip-rule="evenodd"/></clipPath></g><g clip-path="url(#eK8TWdyNaRC231)"><g><path d="M12,21.75L3,16.5v-9l9-5.25L21,7.5v9l-9,5.25ZM21,7.5l-9,5.25M3,7.5l9,5.25m0,0v9" transform="matrix(0.543711 0 0 0.543711 760.424 442.594)" fill="none" stroke="#f5f5f5" stroke-width="1.5" stroke-linecap="round" stroke-linejoin="round"/></g><clipPath id="eK8TWdyNaRC231"><path d="M3168.4354,1844.1416h54.3711v54.3711h-54.3711v-54.3711Z" transform="matrix(0.24 0 0 0.24 0 0)" clip-rule="evenodd"/></clipPath></g></g><path id="eK8TWdyNaRC233" d="M327.881031,133.672378l-.517765,42.502438" transform="translate(-1.468312 204.16325)" fill="none" stroke="#3f5787" stroke-width="1.4" stroke-linecap="round" stroke-dashoffset="30" stroke-dasharray="4"/><path id="eK8TWdyNaRC234" d="M326.43934,135.308577v37.783815" fill="none" stroke="#3f5787" stroke-width="1.4" stroke-linecap="round" stroke-dashoffset="30" stroke-dasharray="4"/><path id="eK8TWdyNaRC235" d="M232.753833,460.936892l.178866,25.610189h92.962255v30.873209" transform="translate(0.000002 0.000001)" fill="none" stroke="#3f5787" stroke-width="1.4" stroke-dashoffset="30" stroke-dasharray="4"/><path id="eK8TWdyNaRC236" d="M425.331148,460.936893v25.610189h-99.436195v30.873208" transform="translate(0.000001 0)" fill="none" stroke="#3f5787" stroke-width="1.4" stroke-dashoffset="30" stroke-dasharray="4"/><path id="eK8TWdyNaRC237" d="M331.778641,552.453301h-227.816395l-.000014,13.650154" transform="translate(0.000001 -0.264637)" fill="none" stroke="#3f5787" stroke-width="1.4" stroke-dashoffset="30" stroke-dasharray="4"/><path id="eK8TWdyNaRC238" d="M216.091776,552.453301h-112.12953l-.000014,13.650154" transform="translate(113.908229 -0.264637)" fill="none" stroke="#3f5787" stroke-width="1.4" stroke-dashoffset="30" stroke-dasharray="4"/><path id="eK8TWdyNaRC239" d="M216.091776,552.453301h117.804538l.000001,16.901821" transform="translate(113.908229 -0.264637)" fill="none" stroke="#3f5787" stroke-width="1.4" stroke-dashoffset="30" stroke-dasharray="4"/><path id="eK8TWdyNaRC240" d="M216.091776,552.453301h231.666063v16.901822" transform="translate(113.908229 -0.264637)" fill="none" stroke="#3f5787" stroke-width="1.4" stroke-dashoffset="30" stroke-dasharray="4"/><path id="eK8TWdyNaRC241" d="M216.091776,552.453301h.000002l-.000004,17.383624" transform="translate(113.908229 -0.264637)" fill="none" stroke="#3f5787" stroke-width="1.4" stroke-dashoffset="30" stroke-dasharray="4"/><g id="eK8TWdyNaRC242" transform="matrix(1 0 0 1 468.88 618.5)"><rect id="eK8TWdyNaRC243" width="175" height="61.25" rx="28" ry="28" transform="matrix(1 0 0 1 -8.375042 -5.249997)" opacity="0.2" fill="#112346" stroke-width="0"/><path id="eK8TWdyNaRC244" d="M100.296,8.840967h1.86105v8.05706h-1.86105v-8.05706Zm.93793-1.32776c-.33752,0-.62035-.10561-.84864-.31684-.22829-.22129-.34251-.49288-.34251-.81477s.11422-.58843.34251-.79967c.22829-.22129.51112-.33193.84864-.33193s.62035.10562.84864.31685c.22829.20117.34251.45766.34251.76949c0,.33195-.11422.61358-.34251.84494-.21832.22129-.5013.33193-.84864.33193Zm17.50762,4.76743v4.61696h-1.86105v-4.37556c0-.70411-.16378-1.23218-.49133-1.58425-.32755-.3621-.7941-.54316-1.39949-.54316-.68501,0-1.2259.21123-1.62294.63369-.39705.41241-.59557,1.0109-.59557,1.7955v4.07379h-1.86105v-11.19538h1.86105v4.07379c.30776-.33195.68486-.58341,1.13162-.75441.45658-.18106.96271-.27159,1.51855-.27159c1.00259,0,1.80651.29673,2.41206.8902.60539.59346.90817,1.4736.90817,2.64042h-.00002Zm-11.14925,4.72426c-.87342,0-1.54846-.23136-2.02483-.69407-.47652-.46269-.71478-1.13663-.71478-2.02181v-3.87763h-1.3102v-1.50882h1.3102v-1.84075h1.8612v1.84075h2.12908v1.50882h-2.12908v3.83237c0,.39231.09428.69407.28283.9053.18855.20117.46156.30176.81888.30176.41684,0,.76433-.11065,1.04218-.33195l.52109,1.34285c-.21832.18106-.48634.31685-.80392.40738-.30776.09053-.63531.13579-.98265.13579v.00001Zm-13.2957-.10591l-2.05474-5.55243-2.08436,5.55243h-1.78672l-2.91819-8.05706h1.75696l2.09931,5.94472l2.18861-5.94472h1.56327l2.14403,5.97489l2.15884-5.97489h1.65271l-2.93315,8.05706h-1.78657Zm-13.58488-3.98495c0,.13076-.00982.31685-.02976.55826h-6.23841c.10923.59347.39221,1.06623.84879,1.41829.4664.34199,1.04218.51299,1.72704.51299.87342,0,1.59303-.2917,2.15884-.87511l.99761,1.16179c-.35731.43252-.80906.75943-1.35492.98072s-1.16138.33195-1.84625.33195c-.87342,0-1.64274-.17603-2.30766-.52808-.66507-.35206-1.18118-.83991-1.54846-1.46355-.35731-.63369-.53605-1.34787-.53605-2.14251c0-.78458.17375-1.48869.52109-2.11234.35731-.63371.84864-1.12657,1.47398-1.47863s1.33015-.52808,2.11427-.52808c.77415,0,1.464.17603,2.06955.52808.61537.34199,1.09189.82985,1.42926,1.46354.34749.62364.52109,1.34788.52109,2.1727l-.00001-.00002Zm-4.01989-2.65551c-.59557,0-1.1017.18106-1.5187.54318-.40687.35206-.6551.82481-.74439,1.41829h4.51122c-.07932-.58341-.32256-1.05617-.72943-1.41829-.40702-.36212-.9133-.54318-1.5187-.54318Zm-7.67538,6.63907v-1.04108c-.30776.38223-.68985.66889-1.14643.86002-.44676.19112-.94291.28668-1.48893.28668-.76433,0-1.45403-.17101-2.06955-.51301-.60539-.34199-1.08191-.82481-1.42925-1.44846-.34749-.63369-.52109-1.35793-.52109-2.17268s.17359-1.53397.52109-2.1576c.34734-.62364.82386-1.10646,1.42925-1.44846.61552-.34201,1.30522-.51301,2.06955-.51301.52607,0,1.00743.09053,1.44421.27159s.8089.45265,1.11666.81477v-4.13414h1.86105v11.19538h-1.78656Zm-.35731-2.70078c.20834-.38223.31259-.82481.31259-1.32774s-.10425-.94553-.31259-1.32776c-.2085-.38223-.49133-.67394-.84864-.87511-.35746-.21125-.75935-.31685-1.2061-.31685-.4466,0-.84864.10561-1.20595.31685-.35731.20117-.64014.49288-.84864.87511s-.31259.82481-.31259,1.32776.1041.94551.31259,1.32774.49132.67897.84864.8902c.35731.20118.75935.30176,1.20595.30176.44676,0,.84864-.10058,1.2061-.30176.35731-.21123.64014-.50796.84864-.8902ZM56.93698,8.749727c1.1712,0,2.06456.28667,2.67993.86002.62534.56329.93793,1.41829.93793,2.56499v4.72257h-1.75681v-.98072c-.22829.35206-.55584.62363-.98265.81475-.41699.18106-.92312.27159-1.5187.27159s-1.11666-.10059-1.56327-.30176c-.44671-.21125-.79411-.49791-1.04225-.86003-.23823-.37217-.35733-.78961-.35733-1.25231c0-.72424.26304-1.30262.7891-1.73514.536-.44259,1.37467-.66388,2.51626-.66388h2.05459v-.1207c0-.56329-.16876-.99581-.50628-1.29757-.32755-.30178-.81888-.45265-1.47398-.45265-.4466,0-.88837.0704-1.32501.21123-.42681.14083-.78911.33696-1.08691.58844l-.72956-1.37302c.41689-.32189.91812-.56832,1.50373-.73932s1.20595-.2565,1.8612-.2565l.00001.00001Zm-.25322,6.88017c.46655,0,.8784-.10562,1.23587-.31685.36714-.22129.62519-.53312.77415-.93545v-.93547h-1.92073c-1.07194,0-1.60784.35709-1.60784,1.07126c0,.34199.13386.61357.40188.81475s.6403.30176,1.11666.30176h.00001Zm-10.69116.06065h-.86354l-3.42441-5.7033v6.91036h-1.8462v-10.56169h1.59309l4.13907,7.00089l4.06463-7.00089h1.59309l.01488,10.56169h-1.8313l-.0149-7.00089-3.42441,5.79383ZM109.33381,29.33985v15.15h-3.372v-1.962c-.57764.71189-1.32435,1.2678-2.172,1.617-.90563.36793-1.87555.55151-2.853.54-1.37977.02378-2.74245-.30785-3.957-.963-1.13745-.62625-2.07375-1.56255-2.7-2.7-1.30391-2.56373-1.30391-5.59627,0-8.16.6281-1.13606,1.56394-2.0719,2.7-2.7c1.21546-.65275,2.57751-.98423,3.957-.963.92501-.00857,1.84259.16578,2.7.513.8172.33509,1.54983.84741,2.145,1.5v-.762c0-.28643.11378-.56114.31633-.76367s.47724-.31633.76367-.31633l2.472-.03Zm-4.767,11.01c1.70241-1.9736,1.70241-4.8964,0-6.87-1.79985-1.74394-4.65915-1.74394-6.459,0-1.68467,1.98016-1.68467,4.88984,0,6.87.84101.87157,2.01145,1.34672,3.222,1.308c1.21374.03854,2.38799-.43377,3.237-1.302v-.006Zm17.94,3.324c-.4506.35546-.96927.61479-1.524.762-.61408.17233-1.2492.25816-1.887.255-1.41013.09088-2.79902-.37927-3.864-1.308-.9622-1.0234-1.45181-2.403-1.35-3.804v-13.59h2.469c.28643,0,.56114.11378.76367.31633s.31633.47724.31633.76367v2.379h4.047v2.853h-4.047v7.2c-.04376.61441.15433,1.2216.552,1.692.40613.41048.96838.62774,1.545.597.22613.00135.45196-.01672.675-.054.80958-.16952,1.6251.26156,1.941,1.026l.363.912Zm5.079.027c-1.20043-.63362-2.19844-1.59212-2.88-2.766-1.3796-2.49392-1.3796-5.52208,0-8.016.68541-1.16705,1.68279-2.11975,2.88-2.751c2.61457-1.32565,5.70443-1.32565,8.319,0c1.19702.63151,2.19433,1.58416,2.88,2.751c1.3796,2.49392,1.3796,5.52208,0,8.016-.68182,1.17368-1.67976,2.13211-2.88,2.766-2.61457,1.32565-5.70443,1.32565-8.319,0Zm7.392-3.369c1.70241-1.9736,1.70241-4.8964,0-6.87-1.79985-1.74394-4.65915-1.74394-6.459,0-1.68467,1.98016-1.68467,4.88984,0,6.87.84101.87157,2.01145,1.34672,3.222,1.308c1.21059.04404,2.38438-.42048,3.237-1.281v-.027Zm17.022-11.16v3.372c-.27077-.05406-.54592-.08318-.822-.087-1.19439-.06706-2.36247.36798-3.222,1.2-.83467.95959-1.25439,2.2112-1.167,3.48v7.353h-3.552v-15.15h2.298c.28643,0,.56113.11379.76367.31633s.31633.47724.31633.76367v1.134c1.014-1.588,2.809-2.382,5.385-2.382Zm-107.022,15.042c-.99952-.24447-1.95011-.65737-2.811-1.221l.621-1.233c.3744-.7399,1.2508-1.07278,2.022-.768.37389.15524.75654.28847,1.146.399.91807.26884,1.86939.4072,2.826.411c2.118,0,3.179-.557,3.183-1.671.01432-.51063-.31898-.96614-.81-1.107-.84397-.28199-1.7129-.4829-2.595-.6-1.03337-.14877-2.05419-.3744-3.054-.675-.77526-.24876-1.47221-.69547-2.022-1.296-.61143-.71083-.9214-1.63215-.864-2.568-.02956-1.38298.6493-2.68527,1.8-3.453c1.44674-.93234,3.1502-1.38576,4.869-1.296c1.05397.00022,2.10457.11896,3.132.354.90209.18897,1.76874.51902,2.568.978l-.675,1.296c-.363.73034-1.21602,1.07232-1.983.795-.9848-.3605-2.02631-.54137-3.075-.534-.81824-.04818-1.63519.11397-2.373.471-.48302.22293-.79719.70118-.81,1.233-.01041.54748.34149,1.03623.864,1.2.87464.31646,1.77934.54264,2.7.675c1.00825.15143,2.00395.37704,2.979.675.77042.2345,1.46702.66444,2.022,1.248.59601.69214.89656,1.59055.837,2.502.02092,1.37985-.67962,2.67062-1.848,3.405-1.50499.92728-3.25673,1.37412-5.022,1.281-1.22607-.00259-2.44614-.17112-3.627-.501Zm44.883-14.874v12.858c0,5.336-2.724,8.004-8.172,8.004-1.40084.00811-2.79608-.17765-4.146-.552-1.17835-.30549-2.28055-.85199-3.237-1.605l1.026-1.713c.30567-.49262.95204-.6455,1.446-.342.51805.29338,1.06493.53264,1.632.714.99571.32459,2.03673.48864,3.084.486c1.664,0,2.884-.378,3.66-1.134.84612-.94702,1.26781-2.19906,1.167-3.465v-.795c-.61114.66419-1.36796,1.17763-2.211,1.5-.91436.34924-1.88627.52327-2.865.513-1.35633.0185-2.69615-.29893-3.9-.924-1.14224-.59206-2.09694-1.49066-2.757-2.595-.68212-1.15978-1.02996-2.48573-1.005-3.831-.02691-1.34077.32116-2.66242,1.005-3.816.65985-1.09557,1.61266-1.98501,2.751-2.568c1.20751-.61258,2.54617-.9215,3.9-.9c1.02537-.01399,2.04386.16934,3,.54.88145.34534,1.65934.91145,2.259,1.644v-.936c0-.28643.11379-.56114.31633-.76367s.47724-.31633.76367-.31633l2.283-.003Zm-4.782,10.263c.86632-.80774,1.34014-1.95125,1.299-3.135.03647-1.17094-.43625-2.30022-1.296-3.096-1.9293-1.58787-4.7127-1.58787-6.642,0-.85642.7974-1.32577,1.92647-1.287,3.096-.04421,1.18189.4251,2.3251,1.287,3.135c1.92186,1.60535,4.71714,1.60535,6.639,0Zm-12.057-10.278l-5.892,13.743c-.36888.86087-1.21443,1.41985-2.151,1.422h-1.902l5.763-13.404.3-.675c.28294-.65223.92704-1.07338,1.638-1.071l2.244-.015Zm-10.785,13.263l-5.889-13.236h2.511c.71819-.00121,1.36666.42953,1.644,1.092l3.492,8.046-1.758,4.098Z" opacity="0.8" clip-rule="evenodd" fill="#fff" fill-rule="evenodd"/><g id="eK8TWdyNaRC245" transform="matrix(0.3 0 0 0.3 -18.12243 -25.905895)" opacity="0.8" mask="url(#eK8TWdyNaRC247)"><path id="eK8TWdyNaRC246" d="M129.5,243.58426c-8.76,2.18-20.08,1.79-37.33-19.63-2.35828-2.9281-4.38181-6.36293-5.93416-10.02849c3.00814.97918,6.21933,1.50849,9.55416,1.50849c17.03246,0,30.84-13.80754,30.84-30.84c0-5.42003-1.39819-10.5135-3.85355-14.93939c22.54068-3.14789,48.24701-1.18662,56.01355,6.19939c12.32,11.73-14.11,59.03-49.29,67.73Z" fill="#fff"/><mask id="eK8TWdyNaRC247" mask-type="alpha" x="-150%" y="-150%" height="400%" width="400%"><path id="eK8TWdyNaRC248" d="M78.37454,207.03926c0-31.45994,25.50332-56.96327,56.96327-56.96327s56.96327,25.50332,56.96327,56.96327-25.50332,56.96327-56.96327,56.96327-56.96327-25.50332-56.96327-56.96327Zm89.23546-4.715c-.16775-.93858-1.05962-1.56734-2-1.41h-.06c-4.15414.71597-8.30501-1.28258-10.33588-4.97651s-1.49439-8.26953,1.33588-11.39349c.33036-.3301.51598-.77798.51598-1.245s-.18561-.9149-.51598-1.245l-.11-.1c-2.70671-2.31865-5.78705-4.16144-9.11-5.45-.43613-.17299-.92328-.16468-1.35326.02308s-.76719.53944-.93674.97692v.06c-1.40364,3.98681-5.18789,6.63916-9.41438,6.59848s-7.95898-2.76539-9.28562-6.77848c-.13404-.44903-.44162-.82607-.85458-1.04757s-.8972-.26916-1.34542-.13243h-.11c-3.26392,1.21388-6.31249,2.94242-9.03,5.12-.37331.28196-.619.70095-.6828,1.16441s.05956.93325.3428,1.30559l.1.12c2.68294,3.2243,3.03751,7.79124.8844,11.39101s-6.34454,5.44763-10.4544,4.60899c-.45624-.10445-.9353-.02286-1.33126.22672s-.67619.6466-.77874,1.10328v.09c-.55386,3.43784-.55386,6.94217,0,10.38.06433.46505.31181.88512.68739,1.16681s.84815.40164,1.31261.33319h.11c4.15414-.71597,8.30501,1.28258,10.33588,4.97651s1.49439,8.26953-1.33588,11.39349c-.33036.3301-.51598.77798-.51598,1.245s.18561.9149.51598,1.245l.11.1c2.70914,2.30768,5.7893,4.14023,9.11,5.42.43613.17299.92328.16468,1.35326-.02308s.76719-.53944.93674-.97692v-.06c1.40815-3.97311,5.18194-6.61524,9.39704-6.57914s7.94308,2.7425,9.28296,6.73914c.13404.44903.44162.82607.85458,1.04757s.8972.26916,1.34542.13243h.11c3.30375-1.22537,6.38706-2.97809,9.13-5.19.37164-.28659.61343-.70974.67164-1.17542s-.07198-.93533-.36164-1.30458l-.1-.12c-2.83001-3.19588-3.28744-7.84789-1.13412-11.53378s6.43037-5.57199,10.60412-4.67622c.93041.23341,1.87421-.33019,2.11-1.26v-.09c.5347-3.37898.5347-6.82102,0-10.2Zm-41.67,4.69c0-5.197,4.213-9.41,9.41-9.41s9.41,4.213,9.41,9.41-4.213,9.41-9.41,9.41-9.41-4.213-9.41-9.41Z" fill="#fff" stroke-width="0"/></mask></g><path id="eK8TWdyNaRC249" d="M116.33,114.77l-3.64-2.18c-1.023263-.593162-1.652267-1.687247-1.65-2.87v-2c-.002267-1.182753.626737-2.276838,1.65-2.87l3.64-2.18c.762973-.435835,1.321342-1.157154,1.552062-2.005003s.114855-1.752643-.322062-2.514997v0l-1.74-3c-.935215-1.566004-2.961067-2.080293-4.53-1.15v0l-3.68,2.18c-1.024118.591275-2.285882.591275-3.31,0l-1.7-1c-1.023263-.593162-1.652267-1.687247-1.65-2.87v-4.38c0-.877867-.348731-1.719778-.969477-2.340523s-1.462656-.969477-2.340523-.969477h-3.47c-.877867,0-1.719778.348731-2.340523.969477s-.969477,1.462656-.969477,2.340523s0,.06,0,.09v4.35c.002267,1.182753-.626737,2.276838-1.65,2.87l-1.68,1c-1.024118.591275-2.285882.591275-3.31,0L80.56,94c-.767143-.448916-1.682599-.570435-2.540292-.337203s-1.585543.801616-2.019708,1.577203v0l-1.74,3c-.443418.7584-.567152,1.661967-.343945,2.511654s.775044,1.575787,1.533945,2.018346v0L79.1,105c1.023263.593162,1.652267,1.687247,1.65,2.87v2c.002267,1.182753-.626737,2.276838-1.65,2.87l-3.61,2.18c-1.578036.917936-2.114924,2.940216-1.2,4.52v0l1.74,3c.917936,1.578036,2.940216,2.114924,4.52,1.2v0l3.66-2.18c1.024118-.591275,2.285882-.591275,3.31,0l1.68,1c1.023263.593162,1.652267,1.687247,1.65,2.87v3.67c0,.877867.348731,1.719778.969477,2.340523s1.462656.969477,2.340523.969477h3.46c.877867,0,1.719778-.348731,2.340523-.969477s.969477-1.462656.969477-2.340523v0-3.77c-.002267-1.182753.626737-2.276838,1.65-2.87l1.7-1c1.024118-.591275,2.285882-.591275,3.31,0l3.66,2.18c1.5824.913239,3.605483.371662,4.52-1.21v0l1.74-3c.938839-1.568495.428452-3.601089-1.14-4.54Zm-20.49.91c-3.865993,0-7-3.134007-7-7s3.134007-7,7-7s7,3.134007,7,7v0c0,3.865993-3.134007,7-7,7v0Z" transform="matrix(0.3 0 0 0.3 -17.650844 -2.6395)" opacity="0.8" fill="#fff"/></g>
<script><![CDATA[
(function(s,i,u,o,c,w,d,t,n,x,e,p,a,b){w[o]=w[o]||{};w[o][s]=w[o][s]||[];w[o][s].push(i);e=d.createElementNS(n,t);e.async=true;e.setAttributeNS(x,'href',[u,s,'.','j','s','?','v','=',c].join(''));e.setAttributeNS(null,'src',[u,s,'.','j','s','?','v','=',c].join(''));p=d.getElementsByTagName(t)[0];p.parentNode.insertBefore(e,p);})('5c7f360c',{"root":"eK8TWdyNaRC1","version":"2025-04-07","animations":[{"elements":{"eK8TWdyNaRC233":{"stroke-dashoffset":[{"t":0,"v":30},{"t":3000,"v":0}]},"eK8TWdyNaRC234":{"stroke-dashoffset":[{"t":0,"v":30},{"t":3000,"v":0}]},"eK8TWdyNaRC235":{"stroke-dashoffset":[{"t":0,"v":30},{"t":3000,"v":0}]},"eK8TWdyNaRC236":{"stroke-dashoffset":[{"t":0,"v":30},{"t":3000,"v":0}]},"eK8TWdyNaRC237":{"stroke-dashoffset":[{"t":0,"v":30},{"t":3000,"v":0}]},"eK8TWdyNaRC238":{"stroke-dashoffset":[{"t":0,"v":30},{"t":3000,"v":0}]},"eK8TWdyNaRC239":{"stroke-dashoffset":[{"t":0,"v":30},{"t":3000,"v":0}]},"eK8TWdyNaRC240":{"stroke-dashoffset":[{"t":0,"v":30},{"t":3000,"v":0}]},"eK8TWdyNaRC241":{"stroke-dashoffset":[{"t":0,"v":30},{"t":3000,"v":0}]},"eK8TWdyNaRC248":{"transform":{"data":{"o":{"x":135.33781,"y":207.03926,"type":"corner"},"t":{"x":-135.33781,"y":-207.03926}},"keys":{"r":[{"t":0,"v":720,"e":[0.415,0.08,0.115,0.955]},{"t":7700,"v":0,"e":[1,0]}]}},"fill":[{"t":0,"v":{"t":"c","v":{"r":255,"g":255,"b":255,"a":1}}},{"t":7700,"v":{"t":"c","v":{"r":210,"g":219,"b":236,"a":1}}}]},"eK8TWdyNaRC249":{"transform":{"data":{"o":{"x":11.12,"y":29.9,"type":"corner"},"s":{"x":0.3,"y":0.3},"t":{"x":-95.902813,"y":-108.465}},"keys":{"r":[{"t":0,"v":-720,"e":[0.415,0.08,0.115,0.955]},{"t":7700,"v":0,"e":[1,0]}]}}}},"s":"MVDBkNjk0M2I3ZDhlTTPhiN2E4ZDgyQzg4ODcPzYkU1MzRjNDk0OTQ5FSjQ1M2I3ZDgyTjhiNV2U3YzhkODI4ODg3M2WI1MzRhNDUzYkc4MjhXkN2U4YjdhOGQ4Mjg4FODc4YzNiNTNVNGE0NKTNiN2Y4Mjg1ODUzYjFUzNGE0NUwzYjdhODUB4ZDdlOGI4NzdhOGQ3XZTNiNTM3ZjdhODU4YEzdlNDVOM2I4Yzg5N2AU3ZTdkM2I1MzRhNDUOzYkc3Zjg5OGMzYjUzXNGE0OTQ5NDUzYjkwMY2I1Mzc0M2I0YzdjN2GY0ZjdiNGY1MUs3YjUKxN2U0YTRhNGY3YjRmPNGI3YVE3YzdiNGM3ZVEg0ZDUwN2I1MkQ0YjKRiNTE0YzRmN2U3YTUAyNGQ0OTdjNGVDN2Y3YYjdiN2U0YjdlN2E0ZRTUwNGU0ZTdmNTE0OTDRlNTI0YzRjN2E0YTdRkNTE0ZDdhTjQ5NGM0DZTNiNDUzYjRiNGQ0YDjNiRDQ1M2I0Ylk0ZDJRjM2JDNDUzYjRiNGQV0ZDNiNDUzYjRiNGRGANGVNM2I0NTNiNGI0ZHFg0ZjNiNDUzYjRiNGLQ1MDNiNDUzYjRiNGQR1MTNiNDUzYjRiNGRTNNTIzYkI3Njk2"}],"options":"MQDAxMDg4MmY4MDgxTjQZlN2Y4MTJmNDcyZkwD3OTdjNmVCNzEyZjhhR"},'https://cdn.svgator.com/ply/','__SVGATOR_PLAYER__','2025-04-07',window,document,'script','http://www.w3.org/2000/svg','http://www.w3.org/1999/xlink')
]]></script>
</svg>
